<svg xmlns="http://www.w3.org/2000/svg" xmlns:xlink="http://www.w3.org/1999/xlink" contentStyleType="text/css" data-diagram-type="CLASS" height="1046px" preserveAspectRatio="none" style="width:4099px;height:1046px;background:#FFFFFF;" version="1.1" viewBox="0 0 4099 1046" width="4099px" zoomAndPan="magnify"><title>Sistema de Planejamento de Viagens - Arquitetura Completa</title><defs/><g><text fill="#000000" font-family="Arial" font-size="14" font-weight="bold" lengthAdjust="spacing" textLength="480.5322" x="1802.2339" y="22.9951">Sistema de Planejamento de Viagens - Arquitetura Completa</text><!--cluster Dom?nios--><g id="cluster_Dom&#237;nios"><path d="M15.5,940.5269 L89.8428,940.5269 A3.75,3.75 0 0 1 92.3428,943.0269 L99.3428,962.8238 L947.5,962.8238 A2.5,2.5 0 0 1 950,965.3238 L950,1037.0269 A2.5,2.5 0 0 1 947.5,1039.5269 L15.5,1039.5269 A2.5,2.5 0 0 1 13,1037.0269 L13,943.0269 A2.5,2.5 0 0 1 15.5,940.5269 " fill="#FFFFFF" fill-opacity="0.00000" style="stroke:#000000;stroke-width:1.5;"/><line style="stroke:#000000;stroke-width:1.5;" x1="13" x2="99.3428" y1="962.8238" y2="962.8238"/><text fill="#000000" font-family="Arial" font-size="14" font-weight="bold" lengthAdjust="spacing" textLength="73.3428" x="17" y="955.522">Dom&#237;nios</text></g><!--cluster Entidades--><g id="cluster_Entidades"><path d="M8.5,43.2969 L87.8398,43.2969 A3.75,3.75 0 0 1 90.3398,45.7969 L97.3398,65.5938 L409.5,65.5938 A2.5,2.5 0 0 1 412,68.0938 L412,914.0269 A2.5,2.5 0 0 1 409.5,916.5269 L8.5,916.5269 A2.5,2.5 0 0 1 6,914.0269 L6,45.7969 A2.5,2.5 0 0 1 8.5,43.2969 " fill="#FFFFFF" fill-opacity="0.00000" style="stroke:#000000;stroke-width:1.5;"/><line style="stroke:#000000;stroke-width:1.5;" x1="6" x2="97.3398" y1="65.5938" y2="65.5938"/><text fill="#000000" font-family="Arial" font-size="14" font-weight="bold" lengthAdjust="spacing" textLength="78.3398" x="10" y="58.292">Entidades</text></g><!--cluster Interfaces--><g id="cluster_Interfaces"><path d="M1721.5,200.1869 L1802.4326,200.1869 A3.75,3.75 0 0 1 1804.9326,202.6869 L1811.9326,222.4838 L2089.5,222.4838 A2.5,2.5 0 0 1 2092,224.9838 L2092,296.6869 A2.5,2.5 0 0 1 2089.5,299.1869 L1721.5,299.1869 A2.5,2.5 0 0 1 1719,296.6869 L1719,202.6869 A2.5,2.5 0 0 1 1721.5,200.1869 " fill="#FFFFFF" fill-opacity="0.00000" style="stroke:#000000;stroke-width:1.5;"/><line style="stroke:#000000;stroke-width:1.5;" x1="1719" x2="1811.9326" y1="222.4838" y2="222.4838"/><text fill="#000000" font-family="Arial" font-size="14" font-weight="bold" lengthAdjust="spacing" textLength="79.9326" x="1723" y="215.182">Interfaces</text></g><!--cluster Reposit?rios--><g id="cluster_Reposit&#243;rios"><path d="M1198.5,365.2269 L1298.5117,365.2269 A3.75,3.75 0 0 1 1301.0117,367.7269 L1308.0117,387.5238 L2670.5,387.5238 A2.5,2.5 0 0 1 2673,390.0238 L2673,651.2069 A2.5,2.5 0 0 1 2670.5,653.7069 L1198.5,653.7069 A2.5,2.5 0 0 1 1196,651.2069 L1196,367.7269 A2.5,2.5 0 0 1 1198.5,365.2269 " fill="#FFFFFF" fill-opacity="0.00000" style="stroke:#000000;stroke-width:1.5;"/><line style="stroke:#000000;stroke-width:1.5;" x1="1196" x2="1308.0117" y1="387.5238" y2="387.5238"/><text fill="#000000" font-family="Arial" font-size="14" font-weight="bold" lengthAdjust="spacing" textLength="99.0117" x="1200" y="380.222">Reposit&#243;rios</text></g><!--cluster Servi?os--><g id="cluster_Servi&#231;os"><path d="M2699.5,365.2269 L2767.1572,365.2269 A3.75,3.75 0 0 1 2769.6572,367.7269 L2776.6572,387.5238 L3977.5,387.5238 A2.5,2.5 0 0 1 3980,390.0238 L3980,461.7269 A2.5,2.5 0 0 1 3977.5,464.2269 L2699.5,464.2269 A2.5,2.5 0 0 1 2697,461.7269 L2697,367.7269 A2.5,2.5 0 0 1 2699.5,365.2269 " fill="#FFFFFF" fill-opacity="0.00000" style="stroke:#000000;stroke-width:1.5;"/><line style="stroke:#000000;stroke-width:1.5;" x1="2697" x2="2776.6572" y1="387.5238" y2="387.5238"/><text fill="#000000" font-family="Arial" font-size="14" font-weight="bold" lengthAdjust="spacing" textLength="66.6572" x="2701" y="380.222">Servi&#231;os</text></g><!--cluster Telas--><g id="cluster_Telas"><path d="M2649.5,59.5869 L2692.124,59.5869 A3.75,3.75 0 0 1 2694.624,62.0869 L2701.624,81.8837 L4089.5,81.8837 A2.5,2.5 0 0 1 4092,84.3837 L4092,296.6869 A2.5,2.5 0 0 1 4089.5,299.1869 L2649.5,299.1869 A2.5,2.5 0 0 1 2647,296.6869 L2647,62.0869 A2.5,2.5 0 0 1 2649.5,59.5869 " fill="#FFFFFF" fill-opacity="0.00000" style="stroke:#000000;stroke-width:1.5;"/><line style="stroke:#000000;stroke-width:1.5;" x1="2647" x2="2701.624" y1="81.8837" y2="81.8837"/><text fill="#000000" font-family="Arial" font-size="14" font-weight="bold" lengthAdjust="spacing" textLength="41.624" x="2651" y="74.582">Telas</text></g><!--class Avaliacao--><g id="elem_Avaliacao"><rect codeLine="10" fill="#F1F1F1" height="48" id="Avaliacao" rx="2.5" ry="2.5" style="stroke:#181818;stroke-width:0.5;" width="99.6416" x="499.18" y="975.5269"/><ellipse cx="514.18" cy="991.5269" fill="#ADD1B2" rx="11" ry="11" style="stroke:#181818;stroke-width:1;"/><path d="M517.1488,997.1675 Q516.5706,997.4644 515.93,997.605 Q515.2894,997.7613 514.5863,997.7613 Q512.0863,997.7613 510.7581,996.1206 Q509.4456,994.4644 509.4456,991.3394 Q509.4456,988.2144 510.7581,986.5581 Q512.0863,984.9019 514.5863,984.9019 Q515.2894,984.9019 515.93,985.0581 Q516.5863,985.2144 517.1488,985.5113 L517.1488,988.23 Q516.5238,987.6519 515.93,987.3863 Q515.3363,987.105 514.7113,987.105 Q513.3675,987.105 512.68,988.1831 Q511.9925,989.2456 511.9925,991.3394 Q511.9925,993.4331 512.68,994.5113 Q513.3675,995.5738 514.7113,995.5738 Q515.3363,995.5738 515.93,995.3081 Q516.5238,995.0269 517.1488,994.4488 L517.1488,997.1675 Z " fill="#000000"/><text fill="#000000" font-family="Arial" font-size="14" lengthAdjust="spacing" textLength="67.6416" x="528.18" y="996.3736">Avaliacao</text><line style="stroke:#181818;stroke-width:0.5;" x1="500.18" x2="597.8216" y1="1007.5269" y2="1007.5269"/><line style="stroke:#181818;stroke-width:0.5;" x1="500.18" x2="597.8216" y1="1015.5269" y2="1015.5269"/></g><!--class Codigo--><g id="elem_Codigo"><rect codeLine="11" fill="#F1F1F1" height="48" id="Codigo" rx="2.5" ry="2.5" style="stroke:#181818;stroke-width:0.5;" width="80.5693" x="633.72" y="975.5269"/><ellipse cx="648.72" cy="991.5269" fill="#ADD1B2" rx="11" ry="11" style="stroke:#181818;stroke-width:1;"/><path d="M651.6888,997.1675 Q651.1106,997.4644 650.47,997.605 Q649.8294,997.7613 649.1263,997.7613 Q646.6263,997.7613 645.2981,996.1206 Q643.9856,994.4644 643.9856,991.3394 Q643.9856,988.2144 645.2981,986.5581 Q646.6263,984.9019 649.1263,984.9019 Q649.8294,984.9019 650.47,985.0581 Q651.1263,985.2144 651.6888,985.5113 L651.6888,988.23 Q651.0638,987.6519 650.47,987.3863 Q649.8763,987.105 649.2513,987.105 Q647.9075,987.105 647.22,988.1831 Q646.5325,989.2456 646.5325,991.3394 Q646.5325,993.4331 647.22,994.5113 Q647.9075,995.5738 649.2513,995.5738 Q649.8763,995.5738 650.47,995.3081 Q651.0638,995.0269 651.6888,994.4488 L651.6888,997.1675 Z " fill="#000000"/><text fill="#000000" font-family="Arial" font-size="14" lengthAdjust="spacing" textLength="48.5693" x="662.72" y="996.3736">Codigo</text><line style="stroke:#181818;stroke-width:0.5;" x1="634.72" x2="713.2893" y1="1007.5269" y2="1007.5269"/><line style="stroke:#181818;stroke-width:0.5;" x1="634.72" x2="713.2893" y1="1015.5269" y2="1015.5269"/></g><!--class Data--><g id="elem_Data"><rect codeLine="12" fill="#F1F1F1" height="48" id="Data" rx="2.5" ry="2.5" style="stroke:#181818;stroke-width:0.5;" width="65.4277" x="273.29" y="975.5269"/><ellipse cx="288.29" cy="991.5269" fill="#ADD1B2" rx="11" ry="11" style="stroke:#181818;stroke-width:1;"/><path d="M291.2588,997.1675 Q290.6806,997.4644 290.04,997.605 Q289.3994,997.7613 288.6963,997.7613 Q286.1963,997.7613 284.8681,996.1206 Q283.5556,994.4644 283.5556,991.3394 Q283.5556,988.2144 284.8681,986.5581 Q286.1963,984.9019 288.6963,984.9019 Q289.3994,984.9019 290.04,985.0581 Q290.6963,985.2144 291.2588,985.5113 L291.2588,988.23 Q290.6338,987.6519 290.04,987.3863 Q289.4463,987.105 288.8213,987.105 Q287.4775,987.105 286.79,988.1831 Q286.1025,989.2456 286.1025,991.3394 Q286.1025,993.4331 286.79,994.5113 Q287.4775,995.5738 288.8213,995.5738 Q289.4463,995.5738 290.04,995.3081 Q290.6338,995.0269 291.2588,994.4488 L291.2588,997.1675 Z " fill="#000000"/><text fill="#000000" font-family="Arial" font-size="14" lengthAdjust="spacing" textLength="33.4277" x="302.29" y="996.3736">Data</text><line style="stroke:#181818;stroke-width:0.5;" x1="274.29" x2="337.7177" y1="1007.5269" y2="1007.5269"/><line style="stroke:#181818;stroke-width:0.5;" x1="274.29" x2="337.7177" y1="1015.5269" y2="1015.5269"/></g><!--class Dinheiro--><g id="elem_Dinheiro"><rect codeLine="13" fill="#F1F1F1" height="48" id="Dinheiro" rx="2.5" ry="2.5" style="stroke:#181818;stroke-width:0.5;" width="91.2402" x="373.38" y="975.5269"/><ellipse cx="388.38" cy="991.5269" fill="#ADD1B2" rx="11" ry="11" style="stroke:#181818;stroke-width:1;"/><path d="M391.3488,997.1675 Q390.7706,997.4644 390.13,997.605 Q389.4894,997.7613 388.7863,997.7613 Q386.2863,997.7613 384.9581,996.1206 Q383.6456,994.4644 383.6456,991.3394 Q383.6456,988.2144 384.9581,986.5581 Q386.2863,984.9019 388.7863,984.9019 Q389.4894,984.9019 390.13,985.0581 Q390.7863,985.2144 391.3488,985.5113 L391.3488,988.23 Q390.7238,987.6519 390.13,987.3863 Q389.5363,987.105 388.9113,987.105 Q387.5675,987.105 386.88,988.1831 Q386.1925,989.2456 386.1925,991.3394 Q386.1925,993.4331 386.88,994.5113 Q387.5675,995.5738 388.9113,995.5738 Q389.5363,995.5738 390.13,995.3081 Q390.7238,995.0269 391.3488,994.4488 L391.3488,997.1675 Z " fill="#000000"/><text fill="#000000" font-family="Arial" font-size="14" lengthAdjust="spacing" textLength="59.2402" x="402.38" y="996.3736">Dinheiro</text><line style="stroke:#181818;stroke-width:0.5;" x1="374.38" x2="463.6202" y1="1007.5269" y2="1007.5269"/><line style="stroke:#181818;stroke-width:0.5;" x1="374.38" x2="463.6202" y1="1015.5269" y2="1015.5269"/></g><!--class Duracao--><g id="elem_Duracao"><rect codeLine="14" fill="#F1F1F1" height="48" id="Duracao" rx="2.5" ry="2.5" style="stroke:#181818;stroke-width:0.5;" width="90.8301" x="28.58" y="975.5269"/><ellipse cx="43.58" cy="991.5269" fill="#ADD1B2" rx="11" ry="11" style="stroke:#181818;stroke-width:1;"/><path d="M46.5488,997.1675 Q45.9706,997.4644 45.33,997.605 Q44.6894,997.7613 43.9863,997.7613 Q41.4863,997.7613 40.1581,996.1206 Q38.8456,994.4644 38.8456,991.3394 Q38.8456,988.2144 40.1581,986.5581 Q41.4863,984.9019 43.9863,984.9019 Q44.6894,984.9019 45.33,985.0581 Q45.9863,985.2144 46.5488,985.5113 L46.5488,988.23 Q45.9238,987.6519 45.33,987.3863 Q44.7363,987.105 44.1113,987.105 Q42.7675,987.105 42.08,988.1831 Q41.3925,989.2456 41.3925,991.3394 Q41.3925,993.4331 42.08,994.5113 Q42.7675,995.5738 44.1113,995.5738 Q44.7363,995.5738 45.33,995.3081 Q45.9238,995.0269 46.5488,994.4488 L46.5488,997.1675 Z " fill="#000000"/><text fill="#000000" font-family="Arial" font-size="14" lengthAdjust="spacing" textLength="58.8301" x="57.58" y="996.3736">Duracao</text><line style="stroke:#181818;stroke-width:0.5;" x1="29.58" x2="118.4101" y1="1007.5269" y2="1007.5269"/><line style="stroke:#181818;stroke-width:0.5;" x1="29.58" x2="118.4101" y1="1015.5269" y2="1015.5269"/></g><!--class Horario--><g id="elem_Horario"><rect codeLine="15" fill="#F1F1F1" height="48" id="Horario" rx="2.5" ry="2.5" style="stroke:#181818;stroke-width:0.5;" width="83.6387" x="154.18" y="975.5269"/><ellipse cx="169.18" cy="991.5269" fill="#ADD1B2" rx="11" ry="11" style="stroke:#181818;stroke-width:1;"/><path d="M172.1488,997.1675 Q171.5706,997.4644 170.93,997.605 Q170.2894,997.7613 169.5863,997.7613 Q167.0863,997.7613 165.7581,996.1206 Q164.4456,994.4644 164.4456,991.3394 Q164.4456,988.2144 165.7581,986.5581 Q167.0863,984.9019 169.5863,984.9019 Q170.2894,984.9019 170.93,985.0581 Q171.5863,985.2144 172.1488,985.5113 L172.1488,988.23 Q171.5238,987.6519 170.93,987.3863 Q170.3363,987.105 169.7113,987.105 Q168.3675,987.105 167.68,988.1831 Q166.9925,989.2456 166.9925,991.3394 Q166.9925,993.4331 167.68,994.5113 Q168.3675,995.5738 169.7113,995.5738 Q170.3363,995.5738 170.93,995.3081 Q171.5238,995.0269 172.1488,994.4488 L172.1488,997.1675 Z " fill="#000000"/><text fill="#000000" font-family="Arial" font-size="14" lengthAdjust="spacing" textLength="51.6387" x="183.18" y="996.3736">Horario</text><line style="stroke:#181818;stroke-width:0.5;" x1="155.18" x2="236.8187" y1="1007.5269" y2="1007.5269"/><line style="stroke:#181818;stroke-width:0.5;" x1="155.18" x2="236.8187" y1="1015.5269" y2="1015.5269"/></g><!--class Nome--><g id="elem_Nome"><rect codeLine="16" fill="#F1F1F1" height="48" id="Nome" rx="2.5" ry="2.5" style="stroke:#181818;stroke-width:0.5;" width="73.2891" x="749.36" y="975.5269"/><ellipse cx="764.36" cy="991.5269" fill="#ADD1B2" rx="11" ry="11" style="stroke:#181818;stroke-width:1;"/><path d="M767.3288,997.1675 Q766.7506,997.4644 766.11,997.605 Q765.4694,997.7613 764.7663,997.7613 Q762.2663,997.7613 760.9381,996.1206 Q759.6256,994.4644 759.6256,991.3394 Q759.6256,988.2144 760.9381,986.5581 Q762.2663,984.9019 764.7663,984.9019 Q765.4694,984.9019 766.11,985.0581 Q766.7663,985.2144 767.3288,985.5113 L767.3288,988.23 Q766.7038,987.6519 766.11,987.3863 Q765.5163,987.105 764.8913,987.105 Q763.5475,987.105 762.86,988.1831 Q762.1725,989.2456 762.1725,991.3394 Q762.1725,993.4331 762.86,994.5113 Q763.5475,995.5738 764.8913,995.5738 Q765.5163,995.5738 766.11,995.3081 Q766.7038,995.0269 767.3288,994.4488 L767.3288,997.1675 Z " fill="#000000"/><text fill="#000000" font-family="Arial" font-size="14" lengthAdjust="spacing" textLength="41.2891" x="778.36" y="996.3736">Nome</text><line style="stroke:#181818;stroke-width:0.5;" x1="750.36" x2="821.6491" y1="1007.5269" y2="1007.5269"/><line style="stroke:#181818;stroke-width:0.5;" x1="750.36" x2="821.6491" y1="1015.5269" y2="1015.5269"/></g><!--class Senha--><g id="elem_Senha"><rect codeLine="17" fill="#F1F1F1" height="48" id="Senha" rx="2.5" ry="2.5" style="stroke:#181818;stroke-width:0.5;" width="75.8252" x="858.09" y="975.5269"/><ellipse cx="873.09" cy="991.5269" fill="#ADD1B2" rx="11" ry="11" style="stroke:#181818;stroke-width:1;"/><path d="M876.0588,997.1675 Q875.4806,997.4644 874.84,997.605 Q874.1994,997.7613 873.4963,997.7613 Q870.9963,997.7613 869.6681,996.1206 Q868.3556,994.4644 868.3556,991.3394 Q868.3556,988.2144 869.6681,986.5581 Q870.9963,984.9019 873.4963,984.9019 Q874.1994,984.9019 874.84,985.0581 Q875.4963,985.2144 876.0588,985.5113 L876.0588,988.23 Q875.4338,987.6519 874.84,987.3863 Q874.2463,987.105 873.6213,987.105 Q872.2775,987.105 871.59,988.1831 Q870.9025,989.2456 870.9025,991.3394 Q870.9025,993.4331 871.59,994.5113 Q872.2775,995.5738 873.6213,995.5738 Q874.2463,995.5738 874.84,995.3081 Q875.4338,995.0269 876.0588,994.4488 L876.0588,997.1675 Z " fill="#000000"/><text fill="#000000" font-family="Arial" font-size="14" lengthAdjust="spacing" textLength="43.8252" x="887.09" y="996.3736">Senha</text><line style="stroke:#181818;stroke-width:0.5;" x1="859.09" x2="932.9152" y1="1007.5269" y2="1007.5269"/><line style="stroke:#181818;stroke-width:0.5;" x1="859.09" x2="932.9152" y1="1015.5269" y2="1015.5269"/></g><!--class Viajante--><g id="elem_Viajante"><rect codeLine="22" fill="#F1F1F1" height="80.5938" id="Viajante" rx="2.5" ry="2.5" style="stroke:#181818;stroke-width:0.5;" width="116.1455" x="275.93" y="78.2969"/><ellipse cx="302.9249" cy="94.2969" fill="#ADD1B2" rx="11" ry="11" style="stroke:#181818;stroke-width:1;"/><path d="M305.8936,99.9375 Q305.3155,100.2344 304.6749,100.375 Q304.0342,100.5313 303.3311,100.5313 Q300.8311,100.5313 299.503,98.8906 Q298.1905,97.2344 298.1905,94.1094 Q298.1905,90.9844 299.503,89.3281 Q300.8311,87.6719 303.3311,87.6719 Q304.0342,87.6719 304.6749,87.8281 Q305.3311,87.9844 305.8936,88.2813 L305.8936,91 Q305.2686,90.4219 304.6749,90.1563 Q304.0811,89.875 303.4561,89.875 Q302.1124,89.875 301.4249,90.9531 Q300.7374,92.0156 300.7374,94.1094 Q300.7374,96.2031 301.4249,97.2813 Q302.1124,98.3438 303.4561,98.3438 Q304.0811,98.3438 304.6749,98.0781 Q305.2686,97.7969 305.8936,97.2188 L305.8936,99.9375 Z " fill="#000000"/><text fill="#000000" font-family="Arial" font-size="14" lengthAdjust="spacing" textLength="57.4902" x="319.5904" y="99.1436">Viajante</text><line style="stroke:#181818;stroke-width:0.5;" x1="276.93" x2="391.0755" y1="110.2969" y2="110.2969"/><rect fill="#FFFFFF" fill-opacity="0.00000" height="6" style="stroke:#C82930;stroke-width:1;" width="6" x="283.93" y="120.9453"/><text fill="#000000" font-family="Arial" font-size="14" lengthAdjust="spacing" textLength="90.1455" x="295.93" y="127.292">nome: Nome</text><rect fill="#FFFFFF" fill-opacity="0.00000" height="6" style="stroke:#C82930;stroke-width:1;" width="6" x="283.93" y="137.2422"/><text fill="#000000" font-family="Arial" font-size="14" lengthAdjust="spacing" textLength="89.6533" x="295.93" y="143.5889">conta: Conta</text><line style="stroke:#181818;stroke-width:0.5;" x1="276.93" x2="391.0755" y1="150.8906" y2="150.8906"/></g><!--class Viagem--><g id="elem_Viagem"><rect codeLine="26" fill="#F1F1F1" height="129.4844" id="Viagem" rx="2.5" ry="2.5" style="stroke:#181818;stroke-width:0.5;" width="169.4521" x="226.27" y="359.4769"/><ellipse cx="280.1543" cy="375.4769" fill="#ADD1B2" rx="11" ry="11" style="stroke:#181818;stroke-width:1;"/><path d="M283.123,381.1175 Q282.5449,381.4144 281.9043,381.555 Q281.2637,381.7113 280.5605,381.7113 Q278.0605,381.7113 276.7324,380.0706 Q275.4199,378.4144 275.4199,375.2894 Q275.4199,372.1644 276.7324,370.5081 Q278.0605,368.8519 280.5605,368.8519 Q281.2637,368.8519 281.9043,369.0081 Q282.5605,369.1644 283.123,369.4613 L283.123,372.18 Q282.498,371.6019 281.9043,371.3363 Q281.3105,371.055 280.6855,371.055 Q279.3418,371.055 278.6543,372.1331 Q277.9668,373.1956 277.9668,375.2894 Q277.9668,377.3831 278.6543,378.4613 Q279.3418,379.5238 280.6855,379.5238 Q281.3105,379.5238 281.9043,379.2581 Q282.498,378.9769 283.123,378.3988 L283.123,381.1175 Z " fill="#000000"/><text fill="#000000" font-family="Arial" font-size="14" lengthAdjust="spacing" textLength="53.1836" x="300.6543" y="380.3236">Viagem</text><line style="stroke:#181818;stroke-width:0.5;" x1="227.27" x2="394.7221" y1="391.4769" y2="391.4769"/><rect fill="#FFFFFF" fill-opacity="0.00000" height="6" style="stroke:#C82930;stroke-width:1;" width="6" x="234.27" y="402.1253"/><text fill="#000000" font-family="Arial" font-size="14" lengthAdjust="spacing" textLength="90.1455" x="246.27" y="408.472">nome: Nome</text><rect fill="#FFFFFF" fill-opacity="0.00000" height="6" style="stroke:#C82930;stroke-width:1;" width="6" x="234.27" y="418.4222"/><text fill="#000000" font-family="Arial" font-size="14" lengthAdjust="spacing" textLength="104.2275" x="246.27" y="424.7689">codigo: Codigo</text><rect fill="#FFFFFF" fill-opacity="0.00000" height="6" style="stroke:#C82930;stroke-width:1;" width="6" x="234.27" y="434.7191"/><text fill="#000000" font-family="Arial" font-size="14" lengthAdjust="spacing" textLength="143.4521" x="246.27" y="441.0657">avaliacao: Avaliacao</text><rect fill="#FFFFFF" fill-opacity="0.00000" height="6" style="stroke:#C82930;stroke-width:1;" width="6" x="234.27" y="451.0159"/><text fill="#000000" font-family="Arial" font-size="14" lengthAdjust="spacing" textLength="89.6533" x="246.27" y="457.3626">conta: Conta</text><rect fill="#FFFFFF" fill-opacity="0.00000" height="6" style="stroke:#C82930;stroke-width:1;" width="6" x="234.27" y="467.3128"/><text fill="#000000" font-family="Arial" font-size="14" lengthAdjust="spacing" textLength="141.4014" x="246.27" y="473.6595">custoTotal: Dinheiro</text><line style="stroke:#181818;stroke-width:0.5;" x1="227.27" x2="394.7221" y1="480.9613" y2="480.9613"/></g><!--class Destino--><g id="elem_Destino"><rect codeLine="33" fill="#F1F1F1" height="129.4844" id="Destino" rx="2.5" ry="2.5" style="stroke:#181818;stroke-width:0.5;" width="169.4521" x="226.27" y="548.9669"/><ellipse cx="279.9936" cy="564.9669" fill="#ADD1B2" rx="11" ry="11" style="stroke:#181818;stroke-width:1;"/><path d="M282.9624,570.6075 Q282.3843,570.9044 281.7436,571.045 Q281.103,571.2013 280.3999,571.2013 Q277.8999,571.2013 276.5718,569.5606 Q275.2593,567.9044 275.2593,564.7794 Q275.2593,561.6544 276.5718,559.9981 Q277.8999,558.3419 280.3999,558.3419 Q281.103,558.3419 281.7436,558.4981 Q282.3999,558.6544 282.9624,558.9513 L282.9624,561.67 Q282.3374,561.0919 281.7436,560.8263 Q281.1499,560.545 280.5249,560.545 Q279.1811,560.545 278.4936,561.6231 Q277.8061,562.6856 277.8061,564.7794 Q277.8061,566.8731 278.4936,567.9513 Q279.1811,569.0138 280.5249,569.0138 Q281.1499,569.0138 281.7436,568.7481 Q282.3374,568.4669 282.9624,567.8888 L282.9624,570.6075 Z " fill="#000000"/><text fill="#000000" font-family="Arial" font-size="14" lengthAdjust="spacing" textLength="53.5049" x="300.4936" y="569.8136">Destino</text><line style="stroke:#181818;stroke-width:0.5;" x1="227.27" x2="394.7221" y1="580.9669" y2="580.9669"/><rect fill="#FFFFFF" fill-opacity="0.00000" height="6" style="stroke:#C82930;stroke-width:1;" width="6" x="234.27" y="591.6153"/><text fill="#000000" font-family="Arial" font-size="14" lengthAdjust="spacing" textLength="90.1455" x="246.27" y="597.962">nome: Nome</text><rect fill="#FFFFFF" fill-opacity="0.00000" height="6" style="stroke:#C82930;stroke-width:1;" width="6" x="234.27" y="607.9122"/><text fill="#000000" font-family="Arial" font-size="14" lengthAdjust="spacing" textLength="104.2275" x="246.27" y="614.2589">codigo: Codigo</text><rect fill="#FFFFFF" fill-opacity="0.00000" height="6" style="stroke:#C82930;stroke-width:1;" width="6" x="234.27" y="624.2091"/><text fill="#000000" font-family="Arial" font-size="14" lengthAdjust="spacing" textLength="143.4521" x="246.27" y="630.5557">avaliacao: Avaliacao</text><rect fill="#FFFFFF" fill-opacity="0.00000" height="6" style="stroke:#C82930;stroke-width:1;" width="6" x="234.27" y="640.5059"/><text fill="#000000" font-family="Arial" font-size="14" lengthAdjust="spacing" textLength="111.1729" x="246.27" y="646.8526">dataInicio: Data</text><rect fill="#FFFFFF" fill-opacity="0.00000" height="6" style="stroke:#C82930;stroke-width:1;" width="6" x="234.27" y="656.8028"/><text fill="#000000" font-family="Arial" font-size="14" lengthAdjust="spacing" textLength="99.709" x="246.27" y="663.1495">dataFim: Data</text><line style="stroke:#181818;stroke-width:0.5;" x1="227.27" x2="394.7221" y1="670.4513" y2="670.4513"/></g><!--class Atividade--><g id="elem_Atividade"><rect codeLine="40" fill="#F1F1F1" height="162.0781" id="Atividade" rx="2.5" ry="2.5" style="stroke:#181818;stroke-width:0.5;" width="169.4521" x="22.27" y="738.4469"/><ellipse cx="69.6977" cy="754.4469" fill="#ADD1B2" rx="11" ry="11" style="stroke:#181818;stroke-width:1;"/><path d="M72.6665,760.0875 Q72.0884,760.3844 71.4477,760.525 Q70.8071,760.6813 70.104,760.6813 Q67.604,760.6813 66.2759,759.0406 Q64.9634,757.3844 64.9634,754.2594 Q64.9634,751.1344 66.2759,749.4781 Q67.604,747.8219 70.104,747.8219 Q70.8071,747.8219 71.4477,747.9781 Q72.104,748.1344 72.6665,748.4313 L72.6665,751.15 Q72.0415,750.5719 71.4477,750.3063 Q70.854,750.025 70.229,750.025 Q68.8852,750.025 68.1977,751.1031 Q67.5102,752.1656 67.5102,754.2594 Q67.5102,756.3531 68.1977,757.4313 Q68.8852,758.4938 70.229,758.4938 Q70.854,758.4938 71.4477,758.2281 Q72.0415,757.9469 72.6665,757.3688 L72.6665,760.0875 Z " fill="#000000"/><text fill="#000000" font-family="Arial" font-size="14" lengthAdjust="spacing" textLength="66.0967" x="90.1977" y="759.2936">Atividade</text><line style="stroke:#181818;stroke-width:0.5;" x1="23.27" x2="190.7221" y1="770.4469" y2="770.4469"/><rect fill="#FFFFFF" fill-opacity="0.00000" height="6" style="stroke:#C82930;stroke-width:1;" width="6" x="30.27" y="781.0953"/><text fill="#000000" font-family="Arial" font-size="14" lengthAdjust="spacing" textLength="90.1455" x="42.27" y="787.442">nome: Nome</text><rect fill="#FFFFFF" fill-opacity="0.00000" height="6" style="stroke:#C82930;stroke-width:1;" width="6" x="30.27" y="797.3922"/><text fill="#000000" font-family="Arial" font-size="14" lengthAdjust="spacing" textLength="104.2275" x="42.27" y="803.7389">codigo: Codigo</text><rect fill="#FFFFFF" fill-opacity="0.00000" height="6" style="stroke:#C82930;stroke-width:1;" width="6" x="30.27" y="813.6891"/><text fill="#000000" font-family="Arial" font-size="14" lengthAdjust="spacing" textLength="143.4521" x="42.27" y="820.0357">avaliacao: Avaliacao</text><rect fill="#FFFFFF" fill-opacity="0.00000" height="6" style="stroke:#C82930;stroke-width:1;" width="6" x="30.27" y="829.9859"/><text fill="#000000" font-family="Arial" font-size="14" lengthAdjust="spacing" textLength="74.1289" x="42.27" y="836.3326">data: Data</text><rect fill="#FFFFFF" fill-opacity="0.00000" height="6" style="stroke:#C82930;stroke-width:1;" width="6" x="30.27" y="846.2828"/><text fill="#000000" font-family="Arial" font-size="14" lengthAdjust="spacing" textLength="110.79" x="42.27" y="852.6295">horario: Horario</text><rect fill="#FFFFFF" fill-opacity="0.00000" height="6" style="stroke:#C82930;stroke-width:1;" width="6" x="30.27" y="862.5797"/><text fill="#000000" font-family="Arial" font-size="14" lengthAdjust="spacing" textLength="124.9336" x="42.27" y="868.9264">duracao: Duracao</text><rect fill="#FFFFFF" fill-opacity="0.00000" height="6" style="stroke:#C82930;stroke-width:1;" width="6" x="30.27" y="878.8766"/><text fill="#000000" font-family="Arial" font-size="14" lengthAdjust="spacing" textLength="107.9258" x="42.27" y="885.2232">preco: Dinheiro</text><line style="stroke:#181818;stroke-width:0.5;" x1="23.27" x2="190.7221" y1="892.525" y2="892.525"/></g><!--class Hospedagem--><g id="elem_Hospedagem"><rect codeLine="49" fill="#F1F1F1" height="113.1875" id="Hospedagem" rx="2.5" ry="2.5" style="stroke:#181818;stroke-width:0.5;" width="169.4521" x="226.27" y="762.8969"/><ellipse cx="261.5029" cy="778.8969" fill="#ADD1B2" rx="11" ry="11" style="stroke:#181818;stroke-width:1;"/><path d="M264.4716,784.5375 Q263.8935,784.8344 263.2529,784.975 Q262.6122,785.1313 261.9091,785.1313 Q259.4091,785.1313 258.081,783.4906 Q256.7685,781.8344 256.7685,778.7094 Q256.7685,775.5844 258.081,773.9281 Q259.4091,772.2719 261.9091,772.2719 Q262.6122,772.2719 263.2529,772.4281 Q263.9091,772.5844 264.4716,772.8813 L264.4716,775.6 Q263.8466,775.0219 263.2529,774.7563 Q262.6591,774.475 262.0341,774.475 Q260.6904,774.475 260.0029,775.5531 Q259.3154,776.6156 259.3154,778.7094 Q259.3154,780.8031 260.0029,781.8813 Q260.6904,782.9438 262.0341,782.9438 Q262.6591,782.9438 263.2529,782.6781 Q263.8466,782.3969 264.4716,781.8188 L264.4716,784.5375 Z " fill="#000000"/><text fill="#000000" font-family="Arial" font-size="14" lengthAdjust="spacing" textLength="92.4902" x="279.9991" y="783.7436">Hospedagem</text><line style="stroke:#181818;stroke-width:0.5;" x1="227.27" x2="394.7221" y1="794.8969" y2="794.8969"/><rect fill="#FFFFFF" fill-opacity="0.00000" height="6" style="stroke:#C82930;stroke-width:1;" width="6" x="234.27" y="805.5453"/><text fill="#000000" font-family="Arial" font-size="14" lengthAdjust="spacing" textLength="90.1455" x="246.27" y="811.892">nome: Nome</text><rect fill="#FFFFFF" fill-opacity="0.00000" height="6" style="stroke:#C82930;stroke-width:1;" width="6" x="234.27" y="821.8422"/><text fill="#000000" font-family="Arial" font-size="14" lengthAdjust="spacing" textLength="104.2275" x="246.27" y="828.1889">codigo: Codigo</text><rect fill="#FFFFFF" fill-opacity="0.00000" height="6" style="stroke:#C82930;stroke-width:1;" width="6" x="234.27" y="838.1391"/><text fill="#000000" font-family="Arial" font-size="14" lengthAdjust="spacing" textLength="143.4521" x="246.27" y="844.4857">avaliacao: Avaliacao</text><rect fill="#FFFFFF" fill-opacity="0.00000" height="6" style="stroke:#C82930;stroke-width:1;" width="6" x="234.27" y="854.4359"/><text fill="#000000" font-family="Arial" font-size="14" lengthAdjust="spacing" textLength="107.9873" x="246.27" y="860.7826">diaria: Dinheiro</text><line style="stroke:#181818;stroke-width:0.5;" x1="227.27" x2="394.7221" y1="868.0844" y2="868.0844"/></g><!--class Conta--><g id="elem_Conta"><rect codeLine="55" fill="#F1F1F1" height="80.5938" id="Conta" rx="2.5" ry="2.5" style="stroke:#181818;stroke-width:0.5;" width="130.2275" x="265.89" y="218.8869"/><ellipse cx="306.5154" cy="234.8869" fill="#ADD1B2" rx="11" ry="11" style="stroke:#181818;stroke-width:1;"/><path d="M309.4841,240.5275 Q308.906,240.8244 308.2654,240.965 Q307.6248,241.1213 306.9216,241.1213 Q304.4216,241.1213 303.0935,239.4806 Q301.781,237.8244 301.781,234.6994 Q301.781,231.5744 303.0935,229.9181 Q304.4216,228.2619 306.9216,228.2619 Q307.6248,228.2619 308.2654,228.4181 Q308.9216,228.5744 309.4841,228.8713 L309.4841,231.59 Q308.8591,231.0119 308.2654,230.7463 Q307.6716,230.465 307.0466,230.465 Q305.7029,230.465 305.0154,231.5431 Q304.3279,232.6056 304.3279,234.6994 Q304.3279,236.7931 305.0154,237.8713 Q305.7029,238.9338 307.0466,238.9338 Q307.6716,238.9338 308.2654,238.6681 Q308.8591,238.3869 309.4841,237.8088 L309.4841,240.5275 Z " fill="#000000"/><text fill="#000000" font-family="Arial" font-size="14" lengthAdjust="spacing" textLength="41.2822" x="326.2099" y="239.7336">Conta</text><line style="stroke:#181818;stroke-width:0.5;" x1="266.89" x2="395.1175" y1="250.8869" y2="250.8869"/><rect fill="#FFFFFF" fill-opacity="0.00000" height="6" style="stroke:#C82930;stroke-width:1;" width="6" x="273.89" y="261.5353"/><text fill="#000000" font-family="Arial" font-size="14" lengthAdjust="spacing" textLength="104.2275" x="285.89" y="267.882">codigo: Codigo</text><rect fill="#FFFFFF" fill-opacity="0.00000" height="6" style="stroke:#C82930;stroke-width:1;" width="6" x="273.89" y="277.8322"/><text fill="#000000" font-family="Arial" font-size="14" lengthAdjust="spacing" textLength="95.2246" x="285.89" y="284.1789">senha: Senha</text><line style="stroke:#181818;stroke-width:0.5;" x1="266.89" x2="395.1175" y1="291.4806" y2="291.4806"/></g><!--class IRepositorio--><g id="elem_IRepositorio"><rect codeLine="63" fill="#F1F1F1" height="48" id="IRepositorio" rx="2.5" ry="2.5" style="stroke:#181818;stroke-width:0.5;" width="138.3848" x="1734.81" y="235.1869"/><ellipse cx="1749.81" cy="251.1869" fill="#B4A7E5" rx="11" ry="11" style="stroke:#181818;stroke-width:1;"/><path d="M1745.7319,246.9525 L1745.7319,244.7963 L1753.1225,244.7963 L1753.1225,246.9525 L1750.6538,246.9525 L1750.6538,255.0306 L1753.1225,255.0306 L1753.1225,257.1869 L1745.7319,257.1869 L1745.7319,255.0306 L1748.2006,255.0306 L1748.2006,246.9525 L1745.7319,246.9525 Z " fill="#000000"/><text fill="#000000" font-family="Arial" font-size="14" font-style="italic" lengthAdjust="spacing" textLength="83.3711" x="1763.81" y="256.0336">IRepositorio</text><rect fill="#FFFFFF" height="15.9688" style="stroke:#181818;stroke-width:1;stroke-dasharray:2.0,2.0;" width="21.0137" x="1855.1811" y="232.1869"/><text fill="#000000" font-family="Arial" font-size="12" font-style="italic" lengthAdjust="spacing" textLength="19.0137" x="1856.1811" y="244.3255">T,K</text><line style="stroke:#181818;stroke-width:0.5;" x1="1735.81" x2="1872.1948" y1="267.1869" y2="267.1869"/><line style="stroke:#181818;stroke-width:0.5;" x1="1735.81" x2="1872.1948" y1="275.1869" y2="275.1869"/></g><!--class IRepositorioViagem--><g id="elem_IRepositorioViagem"><rect codeLine="64" fill="#F1F1F1" height="48" id="IRepositorioViagem" rx="2.5" ry="2.5" style="stroke:#181818;stroke-width:0.5;" width="168.5547" x="1907.72" y="235.1869"/><ellipse cx="1922.72" cy="251.1869" fill="#B4A7E5" rx="11" ry="11" style="stroke:#181818;stroke-width:1;"/><path d="M1918.6419,246.9525 L1918.6419,244.7963 L1926.0325,244.7963 L1926.0325,246.9525 L1923.5638,246.9525 L1923.5638,255.0306 L1926.0325,255.0306 L1926.0325,257.1869 L1918.6419,257.1869 L1918.6419,255.0306 L1921.1106,255.0306 L1921.1106,246.9525 L1918.6419,246.9525 Z " fill="#000000"/><text fill="#000000" font-family="Arial" font-size="14" font-style="italic" lengthAdjust="spacing" textLength="136.5547" x="1936.72" y="256.0336">IRepositorioViagem</text><line style="stroke:#181818;stroke-width:0.5;" x1="1908.72" x2="2075.2747" y1="267.1869" y2="267.1869"/><line style="stroke:#181818;stroke-width:0.5;" x1="1908.72" x2="2075.2747" y1="275.1869" y2="275.1869"/></g><!--class RepositorioBase--><g id="elem_RepositorioBase"><rect codeLine="69" fill="#F1F1F1" height="48" id="RepositorioBase" rx="2.5" ry="2.5" style="stroke:#181818;stroke-width:0.5;" width="145.333" x="1747.33" y="400.2269"/><ellipse cx="1762.33" cy="416.2269" fill="#ADD1B2" rx="11" ry="11" style="stroke:#181818;stroke-width:1;"/><path d="M1765.2988,421.8675 Q1764.7206,422.1644 1764.08,422.305 Q1763.4394,422.4613 1762.7363,422.4613 Q1760.2363,422.4613 1758.9081,420.8206 Q1757.5956,419.1644 1757.5956,416.0394 Q1757.5956,412.9144 1758.9081,411.2581 Q1760.2363,409.6019 1762.7363,409.6019 Q1763.4394,409.6019 1764.08,409.7581 Q1764.7363,409.9144 1765.2988,410.2113 L1765.2988,412.93 Q1764.6738,412.3519 1764.08,412.0863 Q1763.4863,411.805 1762.8613,411.805 Q1761.5175,411.805 1760.83,412.8831 Q1760.1425,413.9456 1760.1425,416.0394 Q1760.1425,418.1331 1760.83,419.2113 Q1761.5175,420.2738 1762.8613,420.2738 Q1763.4863,420.2738 1764.08,420.0081 Q1764.6738,419.7269 1765.2988,419.1488 L1765.2988,421.8675 Z " fill="#000000"/><text fill="#000000" font-family="Arial" font-size="14" lengthAdjust="spacing" textLength="113.333" x="1776.33" y="421.0736">RepositorioBase</text><line style="stroke:#181818;stroke-width:0.5;" x1="1748.33" x2="1891.663" y1="432.2269" y2="432.2269"/><line style="stroke:#181818;stroke-width:0.5;" x1="1748.33" x2="1891.663" y1="440.2269" y2="440.2269"/></g><!--class RepositorioAutenticacao--><g id="elem_RepositorioAutenticacao"><rect codeLine="70" fill="#F1F1F1" height="48" id="RepositorioAutenticacao" rx="2.5" ry="2.5" style="stroke:#181818;stroke-width:0.5;" width="203.165" x="1399.42" y="589.7069"/><ellipse cx="1414.42" cy="605.7069" fill="#ADD1B2" rx="11" ry="11" style="stroke:#181818;stroke-width:1;"/><path d="M1417.3888,611.3475 Q1416.8106,611.6444 1416.17,611.785 Q1415.5294,611.9413 1414.8263,611.9413 Q1412.3263,611.9413 1410.9981,610.3006 Q1409.6856,608.6444 1409.6856,605.5194 Q1409.6856,602.3944 1410.9981,600.7381 Q1412.3263,599.0819 1414.8263,599.0819 Q1415.5294,599.0819 1416.17,599.2381 Q1416.8263,599.3944 1417.3888,599.6913 L1417.3888,602.41 Q1416.7638,601.8319 1416.17,601.5663 Q1415.5763,601.285 1414.9513,601.285 Q1413.6075,601.285 1412.92,602.3631 Q1412.2325,603.4256 1412.2325,605.5194 Q1412.2325,607.6131 1412.92,608.6913 Q1413.6075,609.7538 1414.9513,609.7538 Q1415.5763,609.7538 1416.17,609.4881 Q1416.7638,609.2069 1417.3888,608.6288 L1417.3888,611.3475 Z " fill="#000000"/><text fill="#000000" font-family="Arial" font-size="14" lengthAdjust="spacing" textLength="171.165" x="1428.42" y="610.5536">RepositorioAutenticacao</text><line style="stroke:#181818;stroke-width:0.5;" x1="1400.42" x2="1601.585" y1="621.7069" y2="621.7069"/><line style="stroke:#181818;stroke-width:0.5;" x1="1400.42" x2="1601.585" y1="629.7069" y2="629.7069"/></g><!--class RepositorioViagem--><g id="elem_RepositorioViagem"><rect codeLine="71" fill="#F1F1F1" height="48" id="RepositorioViagem" rx="2.5" ry="2.5" style="stroke:#181818;stroke-width:0.5;" width="164.4258" x="1637.79" y="589.7069"/><ellipse cx="1652.79" cy="605.7069" fill="#ADD1B2" rx="11" ry="11" style="stroke:#181818;stroke-width:1;"/><path d="M1655.7588,611.3475 Q1655.1806,611.6444 1654.54,611.785 Q1653.8994,611.9413 1653.1963,611.9413 Q1650.6963,611.9413 1649.3681,610.3006 Q1648.0556,608.6444 1648.0556,605.5194 Q1648.0556,602.3944 1649.3681,600.7381 Q1650.6963,599.0819 1653.1963,599.0819 Q1653.8994,599.0819 1654.54,599.2381 Q1655.1963,599.3944 1655.7588,599.6913 L1655.7588,602.41 Q1655.1338,601.8319 1654.54,601.5663 Q1653.9463,601.285 1653.3213,601.285 Q1651.9775,601.285 1651.29,602.3631 Q1650.6025,603.4256 1650.6025,605.5194 Q1650.6025,607.6131 1651.29,608.6913 Q1651.9775,609.7538 1653.3213,609.7538 Q1653.9463,609.7538 1654.54,609.4881 Q1655.1338,609.2069 1655.7588,608.6288 L1655.7588,611.3475 Z " fill="#000000"/><text fill="#000000" font-family="Arial" font-size="14" lengthAdjust="spacing" textLength="132.4258" x="1666.79" y="610.5536">RepositorioViagem</text><line style="stroke:#181818;stroke-width:0.5;" x1="1638.79" x2="1801.2158" y1="621.7069" y2="621.7069"/><line style="stroke:#181818;stroke-width:0.5;" x1="1638.79" x2="1801.2158" y1="629.7069" y2="629.7069"/></g><!--class RepositorioDestino--><g id="elem_RepositorioDestino"><rect codeLine="72" fill="#F1F1F1" height="48" id="RepositorioDestino" rx="2.5" ry="2.5" style="stroke:#181818;stroke-width:0.5;" width="164.7471" x="1837.63" y="589.7069"/><ellipse cx="1852.63" cy="605.7069" fill="#ADD1B2" rx="11" ry="11" style="stroke:#181818;stroke-width:1;"/><path d="M1855.5988,611.3475 Q1855.0206,611.6444 1854.38,611.785 Q1853.7394,611.9413 1853.0363,611.9413 Q1850.5363,611.9413 1849.2081,610.3006 Q1847.8956,608.6444 1847.8956,605.5194 Q1847.8956,602.3944 1849.2081,600.7381 Q1850.5363,599.0819 1853.0363,599.0819 Q1853.7394,599.0819 1854.38,599.2381 Q1855.0363,599.3944 1855.5988,599.6913 L1855.5988,602.41 Q1854.9738,601.8319 1854.38,601.5663 Q1853.7863,601.285 1853.1613,601.285 Q1851.8175,601.285 1851.13,602.3631 Q1850.4425,603.4256 1850.4425,605.5194 Q1850.4425,607.6131 1851.13,608.6913 Q1851.8175,609.7538 1853.1613,609.7538 Q1853.7863,609.7538 1854.38,609.4881 Q1854.9738,609.2069 1855.5988,608.6288 L1855.5988,611.3475 Z " fill="#000000"/><text fill="#000000" font-family="Arial" font-size="14" lengthAdjust="spacing" textLength="132.7471" x="1866.63" y="610.5536">RepositorioDestino</text><line style="stroke:#181818;stroke-width:0.5;" x1="1838.63" x2="2001.3771" y1="621.7069" y2="621.7069"/><line style="stroke:#181818;stroke-width:0.5;" x1="1838.63" x2="2001.3771" y1="629.7069" y2="629.7069"/></g><!--class RepositorioAtividade--><g id="elem_RepositorioAtividade"><rect codeLine="73" fill="#F1F1F1" height="48" id="RepositorioAtividade" rx="2.5" ry="2.5" style="stroke:#181818;stroke-width:0.5;" width="177.3389" x="2037.33" y="589.7069"/><ellipse cx="2052.33" cy="605.7069" fill="#ADD1B2" rx="11" ry="11" style="stroke:#181818;stroke-width:1;"/><path d="M2055.2988,611.3475 Q2054.7206,611.6444 2054.08,611.785 Q2053.4394,611.9413 2052.7363,611.9413 Q2050.2363,611.9413 2048.9081,610.3006 Q2047.5956,608.6444 2047.5956,605.5194 Q2047.5956,602.3944 2048.9081,600.7381 Q2050.2363,599.0819 2052.7363,599.0819 Q2053.4394,599.0819 2054.08,599.2381 Q2054.7363,599.3944 2055.2988,599.6913 L2055.2988,602.41 Q2054.6738,601.8319 2054.08,601.5663 Q2053.4863,601.285 2052.8613,601.285 Q2051.5175,601.285 2050.83,602.3631 Q2050.1425,603.4256 2050.1425,605.5194 Q2050.1425,607.6131 2050.83,608.6913 Q2051.5175,609.7538 2052.8613,609.7538 Q2053.4863,609.7538 2054.08,609.4881 Q2054.6738,609.2069 2055.2988,608.6288 L2055.2988,611.3475 Z " fill="#000000"/><text fill="#000000" font-family="Arial" font-size="14" lengthAdjust="spacing" textLength="145.3389" x="2066.33" y="610.5536">RepositorioAtividade</text><line style="stroke:#181818;stroke-width:0.5;" x1="2038.33" x2="2213.6689" y1="621.7069" y2="621.7069"/><line style="stroke:#181818;stroke-width:0.5;" x1="2038.33" x2="2213.6689" y1="629.7069" y2="629.7069"/></g><!--class RepositorioHospedagem--><g id="elem_RepositorioHospedagem"><rect codeLine="74" fill="#F1F1F1" height="48" id="RepositorioHospedagem" rx="2.5" ry="2.5" style="stroke:#181818;stroke-width:0.5;" width="203.7324" x="2250.13" y="589.7069"/><ellipse cx="2265.13" cy="605.7069" fill="#ADD1B2" rx="11" ry="11" style="stroke:#181818;stroke-width:1;"/><path d="M2268.0988,611.3475 Q2267.5206,611.6444 2266.88,611.785 Q2266.2394,611.9413 2265.5363,611.9413 Q2263.0363,611.9413 2261.7081,610.3006 Q2260.3956,608.6444 2260.3956,605.5194 Q2260.3956,602.3944 2261.7081,600.7381 Q2263.0363,599.0819 2265.5363,599.0819 Q2266.2394,599.0819 2266.88,599.2381 Q2267.5363,599.3944 2268.0988,599.6913 L2268.0988,602.41 Q2267.4738,601.8319 2266.88,601.5663 Q2266.2863,601.285 2265.6613,601.285 Q2264.3175,601.285 2263.63,602.3631 Q2262.9425,603.4256 2262.9425,605.5194 Q2262.9425,607.6131 2263.63,608.6913 Q2264.3175,609.7538 2265.6613,609.7538 Q2266.2863,609.7538 2266.88,609.4881 Q2267.4738,609.2069 2268.0988,608.6288 L2268.0988,611.3475 Z " fill="#000000"/><text fill="#000000" font-family="Arial" font-size="14" lengthAdjust="spacing" textLength="171.7324" x="2279.13" y="610.5536">RepositorioHospedagem</text><line style="stroke:#181818;stroke-width:0.5;" x1="2251.13" x2="2452.8624" y1="621.7069" y2="621.7069"/><line style="stroke:#181818;stroke-width:0.5;" x1="2251.13" x2="2452.8624" y1="629.7069" y2="629.7069"/></g><!--class RepositorioViajante--><g id="elem_RepositorioViajante"><rect codeLine="75" fill="#F1F1F1" height="48" id="RepositorioViajante" rx="2.5" ry="2.5" style="stroke:#181818;stroke-width:0.5;" width="168.7324" x="2488.63" y="589.7069"/><ellipse cx="2503.63" cy="605.7069" fill="#ADD1B2" rx="11" ry="11" style="stroke:#181818;stroke-width:1;"/><path d="M2506.5988,611.3475 Q2506.0206,611.6444 2505.38,611.785 Q2504.7394,611.9413 2504.0363,611.9413 Q2501.5363,611.9413 2500.2081,610.3006 Q2498.8956,608.6444 2498.8956,605.5194 Q2498.8956,602.3944 2500.2081,600.7381 Q2501.5363,599.0819 2504.0363,599.0819 Q2504.7394,599.0819 2505.38,599.2381 Q2506.0363,599.3944 2506.5988,599.6913 L2506.5988,602.41 Q2505.9738,601.8319 2505.38,601.5663 Q2504.7863,601.285 2504.1613,601.285 Q2502.8175,601.285 2502.13,602.3631 Q2501.4425,603.4256 2501.4425,605.5194 Q2501.4425,607.6131 2502.13,608.6913 Q2502.8175,609.7538 2504.1613,609.7538 Q2504.7863,609.7538 2505.38,609.4881 Q2505.9738,609.2069 2506.5988,608.6288 L2506.5988,611.3475 Z " fill="#000000"/><text fill="#000000" font-family="Arial" font-size="14" lengthAdjust="spacing" textLength="136.7324" x="2517.63" y="610.5536">RepositorioViajante</text><line style="stroke:#181818;stroke-width:0.5;" x1="2489.63" x2="2656.3624" y1="621.7069" y2="621.7069"/><line style="stroke:#181818;stroke-width:0.5;" x1="2489.63" x2="2656.3624" y1="629.7069" y2="629.7069"/></g><!--class RepositorioConta--><g id="elem_RepositorioConta"><rect codeLine="76" fill="#F1F1F1" height="48" id="RepositorioConta" rx="2.5" ry="2.5" style="stroke:#181818;stroke-width:0.5;" width="152.5244" x="1211.74" y="589.7069"/><ellipse cx="1226.74" cy="605.7069" fill="#ADD1B2" rx="11" ry="11" style="stroke:#181818;stroke-width:1;"/><path d="M1229.7088,611.3475 Q1229.1306,611.6444 1228.49,611.785 Q1227.8494,611.9413 1227.1463,611.9413 Q1224.6463,611.9413 1223.3181,610.3006 Q1222.0056,608.6444 1222.0056,605.5194 Q1222.0056,602.3944 1223.3181,600.7381 Q1224.6463,599.0819 1227.1463,599.0819 Q1227.8494,599.0819 1228.49,599.2381 Q1229.1463,599.3944 1229.7088,599.6913 L1229.7088,602.41 Q1229.0838,601.8319 1228.49,601.5663 Q1227.8963,601.285 1227.2713,601.285 Q1225.9275,601.285 1225.24,602.3631 Q1224.5525,603.4256 1224.5525,605.5194 Q1224.5525,607.6131 1225.24,608.6913 Q1225.9275,609.7538 1227.2713,609.7538 Q1227.8963,609.7538 1228.49,609.4881 Q1229.0838,609.2069 1229.7088,608.6288 L1229.7088,611.3475 Z " fill="#000000"/><text fill="#000000" font-family="Arial" font-size="14" lengthAdjust="spacing" textLength="120.5244" x="1240.74" y="610.5536">RepositorioConta</text><line style="stroke:#181818;stroke-width:0.5;" x1="1212.74" x2="1363.2644" y1="621.7069" y2="621.7069"/><line style="stroke:#181818;stroke-width:0.5;" x1="1212.74" x2="1363.2644" y1="629.7069" y2="629.7069"/></g><!--class ServicoAutenticacao--><g id="elem_ServicoAutenticacao"><rect codeLine="81" fill="#F1F1F1" height="48" id="ServicoAutenticacao" rx="2.5" ry="2.5" style="stroke:#181818;stroke-width:0.5;" width="175.6162" x="2872.19" y="400.2269"/><ellipse cx="2887.19" cy="416.2269" fill="#ADD1B2" rx="11" ry="11" style="stroke:#181818;stroke-width:1;"/><path d="M2890.1588,421.8675 Q2889.5806,422.1644 2888.94,422.305 Q2888.2994,422.4613 2887.5963,422.4613 Q2885.0963,422.4613 2883.7681,420.8206 Q2882.4556,419.1644 2882.4556,416.0394 Q2882.4556,412.9144 2883.7681,411.2581 Q2885.0963,409.6019 2887.5963,409.6019 Q2888.2994,409.6019 2888.94,409.7581 Q2889.5963,409.9144 2890.1588,410.2113 L2890.1588,412.93 Q2889.5338,412.3519 2888.94,412.0863 Q2888.3463,411.805 2887.7213,411.805 Q2886.3775,411.805 2885.69,412.8831 Q2885.0025,413.9456 2885.0025,416.0394 Q2885.0025,418.1331 2885.69,419.2113 Q2886.3775,420.2738 2887.7213,420.2738 Q2888.3463,420.2738 2888.94,420.0081 Q2889.5338,419.7269 2890.1588,419.1488 L2890.1588,421.8675 Z " fill="#000000"/><text fill="#000000" font-family="Arial" font-size="14" lengthAdjust="spacing" textLength="143.6162" x="2901.19" y="421.0736">ServicoAutenticacao</text><line style="stroke:#181818;stroke-width:0.5;" x1="2873.19" x2="3046.8062" y1="432.2269" y2="432.2269"/><line style="stroke:#181818;stroke-width:0.5;" x1="2873.19" x2="3046.8062" y1="440.2269" y2="440.2269"/></g><!--class ServicoViagem--><g id="elem_ServicoViagem"><rect codeLine="82" fill="#F1F1F1" height="48" id="ServicoViagem" rx="2.5" ry="2.5" style="stroke:#181818;stroke-width:0.5;" width="136.877" x="3082.56" y="400.2269"/><ellipse cx="3097.56" cy="416.2269" fill="#ADD1B2" rx="11" ry="11" style="stroke:#181818;stroke-width:1;"/><path d="M3100.5288,421.8675 Q3099.9506,422.1644 3099.31,422.305 Q3098.6694,422.4613 3097.9663,422.4613 Q3095.4663,422.4613 3094.1381,420.8206 Q3092.8256,419.1644 3092.8256,416.0394 Q3092.8256,412.9144 3094.1381,411.2581 Q3095.4663,409.6019 3097.9663,409.6019 Q3098.6694,409.6019 3099.31,409.7581 Q3099.9663,409.9144 3100.5288,410.2113 L3100.5288,412.93 Q3099.9038,412.3519 3099.31,412.0863 Q3098.7163,411.805 3098.0913,411.805 Q3096.7475,411.805 3096.06,412.8831 Q3095.3725,413.9456 3095.3725,416.0394 Q3095.3725,418.1331 3096.06,419.2113 Q3096.7475,420.2738 3098.0913,420.2738 Q3098.7163,420.2738 3099.31,420.0081 Q3099.9038,419.7269 3100.5288,419.1488 L3100.5288,421.8675 Z " fill="#000000"/><text fill="#000000" font-family="Arial" font-size="14" lengthAdjust="spacing" textLength="104.877" x="3111.56" y="421.0736">ServicoViagem</text><line style="stroke:#181818;stroke-width:0.5;" x1="3083.56" x2="3218.437" y1="432.2269" y2="432.2269"/><line style="stroke:#181818;stroke-width:0.5;" x1="3083.56" x2="3218.437" y1="440.2269" y2="440.2269"/></g><!--class ServicoDestino--><g id="elem_ServicoDestino"><rect codeLine="83" fill="#F1F1F1" height="48" id="ServicoDestino" rx="2.5" ry="2.5" style="stroke:#181818;stroke-width:0.5;" width="137.1982" x="3254.4" y="400.2269"/><ellipse cx="3269.4" cy="416.2269" fill="#ADD1B2" rx="11" ry="11" style="stroke:#181818;stroke-width:1;"/><path d="M3272.3688,421.8675 Q3271.7906,422.1644 3271.15,422.305 Q3270.5094,422.4613 3269.8063,422.4613 Q3267.3063,422.4613 3265.9781,420.8206 Q3264.6656,419.1644 3264.6656,416.0394 Q3264.6656,412.9144 3265.9781,411.2581 Q3267.3063,409.6019 3269.8063,409.6019 Q3270.5094,409.6019 3271.15,409.7581 Q3271.8063,409.9144 3272.3688,410.2113 L3272.3688,412.93 Q3271.7438,412.3519 3271.15,412.0863 Q3270.5563,411.805 3269.9313,411.805 Q3268.5875,411.805 3267.9,412.8831 Q3267.2125,413.9456 3267.2125,416.0394 Q3267.2125,418.1331 3267.9,419.2113 Q3268.5875,420.2738 3269.9313,420.2738 Q3270.5563,420.2738 3271.15,420.0081 Q3271.7438,419.7269 3272.3688,419.1488 L3272.3688,421.8675 Z " fill="#000000"/><text fill="#000000" font-family="Arial" font-size="14" lengthAdjust="spacing" textLength="105.1982" x="3283.4" y="421.0736">ServicoDestino</text><line style="stroke:#181818;stroke-width:0.5;" x1="3255.4" x2="3390.5982" y1="432.2269" y2="432.2269"/><line style="stroke:#181818;stroke-width:0.5;" x1="3255.4" x2="3390.5982" y1="440.2269" y2="440.2269"/></g><!--class ServicoAtividade--><g id="elem_ServicoAtividade"><rect codeLine="84" fill="#F1F1F1" height="48" id="ServicoAtividade" rx="2.5" ry="2.5" style="stroke:#181818;stroke-width:0.5;" width="149.79" x="3426.1" y="400.2269"/><ellipse cx="3441.1" cy="416.2269" fill="#ADD1B2" rx="11" ry="11" style="stroke:#181818;stroke-width:1;"/><path d="M3444.0688,421.8675 Q3443.4906,422.1644 3442.85,422.305 Q3442.2094,422.4613 3441.5063,422.4613 Q3439.0063,422.4613 3437.6781,420.8206 Q3436.3656,419.1644 3436.3656,416.0394 Q3436.3656,412.9144 3437.6781,411.2581 Q3439.0063,409.6019 3441.5063,409.6019 Q3442.2094,409.6019 3442.85,409.7581 Q3443.5063,409.9144 3444.0688,410.2113 L3444.0688,412.93 Q3443.4438,412.3519 3442.85,412.0863 Q3442.2563,411.805 3441.6313,411.805 Q3440.2875,411.805 3439.6,412.8831 Q3438.9125,413.9456 3438.9125,416.0394 Q3438.9125,418.1331 3439.6,419.2113 Q3440.2875,420.2738 3441.6313,420.2738 Q3442.2563,420.2738 3442.85,420.0081 Q3443.4438,419.7269 3444.0688,419.1488 L3444.0688,421.8675 Z " fill="#000000"/><text fill="#000000" font-family="Arial" font-size="14" lengthAdjust="spacing" textLength="117.79" x="3455.1" y="421.0736">ServicoAtividade</text><line style="stroke:#181818;stroke-width:0.5;" x1="3427.1" x2="3574.89" y1="432.2269" y2="432.2269"/><line style="stroke:#181818;stroke-width:0.5;" x1="3427.1" x2="3574.89" y1="440.2269" y2="440.2269"/></g><!--class ServicoHospedagem--><g id="elem_ServicoHospedagem"><rect codeLine="85" fill="#F1F1F1" height="48" id="ServicoHospedagem" rx="2.5" ry="2.5" style="stroke:#181818;stroke-width:0.5;" width="176.1836" x="3610.91" y="400.2269"/><ellipse cx="3625.91" cy="416.2269" fill="#ADD1B2" rx="11" ry="11" style="stroke:#181818;stroke-width:1;"/><path d="M3628.8788,421.8675 Q3628.3006,422.1644 3627.66,422.305 Q3627.0194,422.4613 3626.3163,422.4613 Q3623.8163,422.4613 3622.4881,420.8206 Q3621.1756,419.1644 3621.1756,416.0394 Q3621.1756,412.9144 3622.4881,411.2581 Q3623.8163,409.6019 3626.3163,409.6019 Q3627.0194,409.6019 3627.66,409.7581 Q3628.3163,409.9144 3628.8788,410.2113 L3628.8788,412.93 Q3628.2538,412.3519 3627.66,412.0863 Q3627.0663,411.805 3626.4413,411.805 Q3625.0975,411.805 3624.41,412.8831 Q3623.7225,413.9456 3623.7225,416.0394 Q3623.7225,418.1331 3624.41,419.2113 Q3625.0975,420.2738 3626.4413,420.2738 Q3627.0663,420.2738 3627.66,420.0081 Q3628.2538,419.7269 3628.8788,419.1488 L3628.8788,421.8675 Z " fill="#000000"/><text fill="#000000" font-family="Arial" font-size="14" lengthAdjust="spacing" textLength="144.1836" x="3639.91" y="421.0736">ServicoHospedagem</text><line style="stroke:#181818;stroke-width:0.5;" x1="3611.91" x2="3786.0936" y1="432.2269" y2="432.2269"/><line style="stroke:#181818;stroke-width:0.5;" x1="3611.91" x2="3786.0936" y1="440.2269" y2="440.2269"/></g><!--class ServicoViajante--><g id="elem_ServicoViajante"><rect codeLine="86" fill="#F1F1F1" height="48" id="ServicoViajante" rx="2.5" ry="2.5" style="stroke:#181818;stroke-width:0.5;" width="141.1836" x="3822.41" y="400.2269"/><ellipse cx="3837.41" cy="416.2269" fill="#ADD1B2" rx="11" ry="11" style="stroke:#181818;stroke-width:1;"/><path d="M3840.3788,421.8675 Q3839.8006,422.1644 3839.16,422.305 Q3838.5194,422.4613 3837.8163,422.4613 Q3835.3163,422.4613 3833.9881,420.8206 Q3832.6756,419.1644 3832.6756,416.0394 Q3832.6756,412.9144 3833.9881,411.2581 Q3835.3163,409.6019 3837.8163,409.6019 Q3838.5194,409.6019 3839.16,409.7581 Q3839.8163,409.9144 3840.3788,410.2113 L3840.3788,412.93 Q3839.7538,412.3519 3839.16,412.0863 Q3838.5663,411.805 3837.9413,411.805 Q3836.5975,411.805 3835.91,412.8831 Q3835.2225,413.9456 3835.2225,416.0394 Q3835.2225,418.1331 3835.91,419.2113 Q3836.5975,420.2738 3837.9413,420.2738 Q3838.5663,420.2738 3839.16,420.0081 Q3839.7538,419.7269 3840.3788,419.1488 L3840.3788,421.8675 Z " fill="#000000"/><text fill="#000000" font-family="Arial" font-size="14" lengthAdjust="spacing" textLength="109.1836" x="3851.41" y="421.0736">ServicoViajante</text><line style="stroke:#181818;stroke-width:0.5;" x1="3823.41" x2="3962.5936" y1="432.2269" y2="432.2269"/><line style="stroke:#181818;stroke-width:0.5;" x1="3823.41" x2="3962.5936" y1="440.2269" y2="440.2269"/></g><!--class ServicoConta--><g id="elem_ServicoConta"><rect codeLine="87" fill="#F1F1F1" height="48" id="ServicoConta" rx="2.5" ry="2.5" style="stroke:#181818;stroke-width:0.5;" width="124.9756" x="2712.51" y="400.2269"/><ellipse cx="2727.51" cy="416.2269" fill="#ADD1B2" rx="11" ry="11" style="stroke:#181818;stroke-width:1;"/><path d="M2730.4788,421.8675 Q2729.9006,422.1644 2729.26,422.305 Q2728.6194,422.4613 2727.9163,422.4613 Q2725.4163,422.4613 2724.0881,420.8206 Q2722.7756,419.1644 2722.7756,416.0394 Q2722.7756,412.9144 2724.0881,411.2581 Q2725.4163,409.6019 2727.9163,409.6019 Q2728.6194,409.6019 2729.26,409.7581 Q2729.9163,409.9144 2730.4788,410.2113 L2730.4788,412.93 Q2729.8538,412.3519 2729.26,412.0863 Q2728.6663,411.805 2728.0413,411.805 Q2726.6975,411.805 2726.01,412.8831 Q2725.3225,413.9456 2725.3225,416.0394 Q2725.3225,418.1331 2726.01,419.2113 Q2726.6975,420.2738 2728.0413,420.2738 Q2728.6663,420.2738 2729.26,420.0081 Q2729.8538,419.7269 2730.4788,419.1488 L2730.4788,421.8675 Z " fill="#000000"/><text fill="#000000" font-family="Arial" font-size="14" lengthAdjust="spacing" textLength="92.9756" x="2741.51" y="421.0736">ServicoConta</text><line style="stroke:#181818;stroke-width:0.5;" x1="2713.51" x2="2836.4856" y1="432.2269" y2="432.2269"/><line style="stroke:#181818;stroke-width:0.5;" x1="2713.51" x2="2836.4856" y1="440.2269" y2="440.2269"/></g><!--class TelaBase--><g id="elem_TelaBase"><rect codeLine="92" fill="#F1F1F1" height="48" id="TelaBase" rx="2.5" ry="2.5" style="stroke:#181818;stroke-width:0.5;" width="95.7246" x="3308.14" y="94.5869"/><ellipse cx="3323.14" cy="110.5869" fill="#ADD1B2" rx="11" ry="11" style="stroke:#181818;stroke-width:1;"/><path d="M3326.1088,116.2275 Q3325.5306,116.5244 3324.89,116.665 Q3324.2494,116.8212 3323.5463,116.8212 Q3321.0463,116.8212 3319.7181,115.1806 Q3318.4056,113.5244 3318.4056,110.3994 Q3318.4056,107.2744 3319.7181,105.6181 Q3321.0463,103.9619 3323.5463,103.9619 Q3324.2494,103.9619 3324.89,104.1181 Q3325.5463,104.2744 3326.1088,104.5712 L3326.1088,107.29 Q3325.4838,106.7119 3324.89,106.4462 Q3324.2963,106.165 3323.6713,106.165 Q3322.3275,106.165 3321.64,107.2431 Q3320.9525,108.3056 3320.9525,110.3994 Q3320.9525,112.4931 3321.64,113.5712 Q3322.3275,114.6337 3323.6713,114.6337 Q3324.2963,114.6337 3324.89,114.3681 Q3325.4838,114.0869 3326.1088,113.5087 L3326.1088,116.2275 Z " fill="#000000"/><text fill="#000000" font-family="Arial" font-size="14" lengthAdjust="spacing" textLength="63.7246" x="3337.14" y="115.4336">TelaBase</text><line style="stroke:#181818;stroke-width:0.5;" x1="3309.14" x2="3402.8646" y1="126.5869" y2="126.5869"/><line style="stroke:#181818;stroke-width:0.5;" x1="3309.14" x2="3402.8646" y1="134.5869" y2="134.5869"/></g><!--class TelaAutenticacao--><g id="elem_TelaAutenticacao"><rect codeLine="93" fill="#F1F1F1" height="48" id="TelaAutenticacao" rx="2.5" ry="2.5" style="stroke:#181818;stroke-width:0.5;" width="153.5566" x="2960.22" y="235.1869"/><ellipse cx="2975.22" cy="251.1869" fill="#ADD1B2" rx="11" ry="11" style="stroke:#181818;stroke-width:1;"/><path d="M2978.1888,256.8275 Q2977.6106,257.1244 2976.97,257.265 Q2976.3294,257.4213 2975.6263,257.4213 Q2973.1263,257.4213 2971.7981,255.7806 Q2970.4856,254.1244 2970.4856,250.9994 Q2970.4856,247.8744 2971.7981,246.2181 Q2973.1263,244.5619 2975.6263,244.5619 Q2976.3294,244.5619 2976.97,244.7181 Q2977.6263,244.8744 2978.1888,245.1713 L2978.1888,247.89 Q2977.5638,247.3119 2976.97,247.0463 Q2976.3763,246.765 2975.7513,246.765 Q2974.4075,246.765 2973.72,247.8431 Q2973.0325,248.9056 2973.0325,250.9994 Q2973.0325,253.0931 2973.72,254.1713 Q2974.4075,255.2338 2975.7513,255.2338 Q2976.3763,255.2338 2976.97,254.9681 Q2977.5638,254.6869 2978.1888,254.1088 L2978.1888,256.8275 Z " fill="#000000"/><text fill="#000000" font-family="Arial" font-size="14" lengthAdjust="spacing" textLength="121.5566" x="2989.22" y="256.0336">TelaAutenticacao</text><line style="stroke:#181818;stroke-width:0.5;" x1="2961.22" x2="3112.7766" y1="267.1869" y2="267.1869"/><line style="stroke:#181818;stroke-width:0.5;" x1="2961.22" x2="3112.7766" y1="275.1869" y2="275.1869"/></g><!--class TelaCadastro--><g id="elem_TelaCadastro"><rect codeLine="94" fill="#F1F1F1" height="48" id="TelaCadastro" rx="2.5" ry="2.5" style="stroke:#181818;stroke-width:0.5;" width="124.5586" x="2800.72" y="235.1869"/><ellipse cx="2815.72" cy="251.1869" fill="#ADD1B2" rx="11" ry="11" style="stroke:#181818;stroke-width:1;"/><path d="M2818.6888,256.8275 Q2818.1106,257.1244 2817.47,257.265 Q2816.8294,257.4213 2816.1263,257.4213 Q2813.6263,257.4213 2812.2981,255.7806 Q2810.9856,254.1244 2810.9856,250.9994 Q2810.9856,247.8744 2812.2981,246.2181 Q2813.6263,244.5619 2816.1263,244.5619 Q2816.8294,244.5619 2817.47,244.7181 Q2818.1263,244.8744 2818.6888,245.1713 L2818.6888,247.89 Q2818.0638,247.3119 2817.47,247.0463 Q2816.8763,246.765 2816.2513,246.765 Q2814.9075,246.765 2814.22,247.8431 Q2813.5325,248.9056 2813.5325,250.9994 Q2813.5325,253.0931 2814.22,254.1713 Q2814.9075,255.2338 2816.2513,255.2338 Q2816.8763,255.2338 2817.47,254.9681 Q2818.0638,254.6869 2818.6888,254.1088 L2818.6888,256.8275 Z " fill="#000000"/><text fill="#000000" font-family="Arial" font-size="14" lengthAdjust="spacing" textLength="92.5586" x="2829.72" y="256.0336">TelaCadastro</text><line style="stroke:#181818;stroke-width:0.5;" x1="2801.72" x2="2924.2786" y1="267.1869" y2="267.1869"/><line style="stroke:#181818;stroke-width:0.5;" x1="2801.72" x2="2924.2786" y1="275.1869" y2="275.1869"/></g><!--class TelaPrincipal--><g id="elem_TelaPrincipal"><rect codeLine="95" fill="#F1F1F1" height="48" id="TelaPrincipal" rx="2.5" ry="2.5" style="stroke:#181818;stroke-width:0.5;" width="121.5371" x="3954.23" y="235.1869"/><ellipse cx="3969.23" cy="251.1869" fill="#ADD1B2" rx="11" ry="11" style="stroke:#181818;stroke-width:1;"/><path d="M3972.1988,256.8275 Q3971.6206,257.1244 3970.98,257.265 Q3970.3394,257.4213 3969.6363,257.4213 Q3967.1363,257.4213 3965.8081,255.7806 Q3964.4956,254.1244 3964.4956,250.9994 Q3964.4956,247.8744 3965.8081,246.2181 Q3967.1363,244.5619 3969.6363,244.5619 Q3970.3394,244.5619 3970.98,244.7181 Q3971.6363,244.8744 3972.1988,245.1713 L3972.1988,247.89 Q3971.5738,247.3119 3970.98,247.0463 Q3970.3863,246.765 3969.7613,246.765 Q3968.4175,246.765 3967.73,247.8431 Q3967.0425,248.9056 3967.0425,250.9994 Q3967.0425,253.0931 3967.73,254.1713 Q3968.4175,255.2338 3969.7613,255.2338 Q3970.3863,255.2338 3970.98,254.9681 Q3971.5738,254.6869 3972.1988,254.1088 L3972.1988,256.8275 Z " fill="#000000"/><text fill="#000000" font-family="Arial" font-size="14" lengthAdjust="spacing" textLength="89.5371" x="3983.23" y="256.0336">TelaPrincipal</text><line style="stroke:#181818;stroke-width:0.5;" x1="3955.23" x2="4074.7671" y1="267.1869" y2="267.1869"/><line style="stroke:#181818;stroke-width:0.5;" x1="3955.23" x2="4074.7671" y1="275.1869" y2="275.1869"/></g><!--class TelaViagem--><g id="elem_TelaViagem"><rect codeLine="96" fill="#F1F1F1" height="48" id="TelaViagem" rx="2.5" ry="2.5" style="stroke:#181818;stroke-width:0.5;" width="114.8174" x="3148.59" y="235.1869"/><ellipse cx="3163.59" cy="251.1869" fill="#ADD1B2" rx="11" ry="11" style="stroke:#181818;stroke-width:1;"/><path d="M3166.5588,256.8275 Q3165.9806,257.1244 3165.34,257.265 Q3164.6994,257.4213 3163.9963,257.4213 Q3161.4963,257.4213 3160.1681,255.7806 Q3158.8556,254.1244 3158.8556,250.9994 Q3158.8556,247.8744 3160.1681,246.2181 Q3161.4963,244.5619 3163.9963,244.5619 Q3164.6994,244.5619 3165.34,244.7181 Q3165.9963,244.8744 3166.5588,245.1713 L3166.5588,247.89 Q3165.9338,247.3119 3165.34,247.0463 Q3164.7463,246.765 3164.1213,246.765 Q3162.7775,246.765 3162.09,247.8431 Q3161.4025,248.9056 3161.4025,250.9994 Q3161.4025,253.0931 3162.09,254.1713 Q3162.7775,255.2338 3164.1213,255.2338 Q3164.7463,255.2338 3165.34,254.9681 Q3165.9338,254.6869 3166.5588,254.1088 L3166.5588,256.8275 Z " fill="#000000"/><text fill="#000000" font-family="Arial" font-size="14" lengthAdjust="spacing" textLength="82.8174" x="3177.59" y="256.0336">TelaViagem</text><line style="stroke:#181818;stroke-width:0.5;" x1="3149.59" x2="3262.4074" y1="267.1869" y2="267.1869"/><line style="stroke:#181818;stroke-width:0.5;" x1="3149.59" x2="3262.4074" y1="275.1869" y2="275.1869"/></g><!--class TelaDestino--><g id="elem_TelaDestino"><rect codeLine="97" fill="#F1F1F1" height="48" id="TelaDestino" rx="2.5" ry="2.5" style="stroke:#181818;stroke-width:0.5;" width="115.1387" x="3298.43" y="235.1869"/><ellipse cx="3313.43" cy="251.1869" fill="#ADD1B2" rx="11" ry="11" style="stroke:#181818;stroke-width:1;"/><path d="M3316.3988,256.8275 Q3315.8206,257.1244 3315.18,257.265 Q3314.5394,257.4213 3313.8363,257.4213 Q3311.3363,257.4213 3310.0081,255.7806 Q3308.6956,254.1244 3308.6956,250.9994 Q3308.6956,247.8744 3310.0081,246.2181 Q3311.3363,244.5619 3313.8363,244.5619 Q3314.5394,244.5619 3315.18,244.7181 Q3315.8363,244.8744 3316.3988,245.1713 L3316.3988,247.89 Q3315.7738,247.3119 3315.18,247.0463 Q3314.5863,246.765 3313.9613,246.765 Q3312.6175,246.765 3311.93,247.8431 Q3311.2425,248.9056 3311.2425,250.9994 Q3311.2425,253.0931 3311.93,254.1713 Q3312.6175,255.2338 3313.9613,255.2338 Q3314.5863,255.2338 3315.18,254.9681 Q3315.7738,254.6869 3316.3988,254.1088 L3316.3988,256.8275 Z " fill="#000000"/><text fill="#000000" font-family="Arial" font-size="14" lengthAdjust="spacing" textLength="83.1387" x="3327.43" y="256.0336">TelaDestino</text><line style="stroke:#181818;stroke-width:0.5;" x1="3299.43" x2="3412.5687" y1="267.1869" y2="267.1869"/><line style="stroke:#181818;stroke-width:0.5;" x1="3299.43" x2="3412.5687" y1="275.1869" y2="275.1869"/></g><!--class TelaAtividade--><g id="elem_TelaAtividade"><rect codeLine="98" fill="#F1F1F1" height="48" id="TelaAtividade" rx="2.5" ry="2.5" style="stroke:#181818;stroke-width:0.5;" width="127.7305" x="3448.13" y="235.1869"/><ellipse cx="3463.13" cy="251.1869" fill="#ADD1B2" rx="11" ry="11" style="stroke:#181818;stroke-width:1;"/><path d="M3466.0988,256.8275 Q3465.5206,257.1244 3464.88,257.265 Q3464.2394,257.4213 3463.5363,257.4213 Q3461.0363,257.4213 3459.7081,255.7806 Q3458.3956,254.1244 3458.3956,250.9994 Q3458.3956,247.8744 3459.7081,246.2181 Q3461.0363,244.5619 3463.5363,244.5619 Q3464.2394,244.5619 3464.88,244.7181 Q3465.5363,244.8744 3466.0988,245.1713 L3466.0988,247.89 Q3465.4738,247.3119 3464.88,247.0463 Q3464.2863,246.765 3463.6613,246.765 Q3462.3175,246.765 3461.63,247.8431 Q3460.9425,248.9056 3460.9425,250.9994 Q3460.9425,253.0931 3461.63,254.1713 Q3462.3175,255.2338 3463.6613,255.2338 Q3464.2863,255.2338 3464.88,254.9681 Q3465.4738,254.6869 3466.0988,254.1088 L3466.0988,256.8275 Z " fill="#000000"/><text fill="#000000" font-family="Arial" font-size="14" lengthAdjust="spacing" textLength="95.7305" x="3477.13" y="256.0336">TelaAtividade</text><line style="stroke:#181818;stroke-width:0.5;" x1="3449.13" x2="3574.8605" y1="267.1869" y2="267.1869"/><line style="stroke:#181818;stroke-width:0.5;" x1="3449.13" x2="3574.8605" y1="275.1869" y2="275.1869"/></g><!--class TelaHospedagem--><g id="elem_TelaHospedagem"><rect codeLine="99" fill="#F1F1F1" height="48" id="TelaHospedagem" rx="2.5" ry="2.5" style="stroke:#181818;stroke-width:0.5;" width="154.124" x="3610.94" y="235.1869"/><ellipse cx="3625.94" cy="251.1869" fill="#ADD1B2" rx="11" ry="11" style="stroke:#181818;stroke-width:1;"/><path d="M3628.9088,256.8275 Q3628.3306,257.1244 3627.69,257.265 Q3627.0494,257.4213 3626.3463,257.4213 Q3623.8463,257.4213 3622.5181,255.7806 Q3621.2056,254.1244 3621.2056,250.9994 Q3621.2056,247.8744 3622.5181,246.2181 Q3623.8463,244.5619 3626.3463,244.5619 Q3627.0494,244.5619 3627.69,244.7181 Q3628.3463,244.8744 3628.9088,245.1713 L3628.9088,247.89 Q3628.2838,247.3119 3627.69,247.0463 Q3627.0963,246.765 3626.4713,246.765 Q3625.1275,246.765 3624.44,247.8431 Q3623.7525,248.9056 3623.7525,250.9994 Q3623.7525,253.0931 3624.44,254.1713 Q3625.1275,255.2338 3626.4713,255.2338 Q3627.0963,255.2338 3627.69,254.9681 Q3628.2838,254.6869 3628.9088,254.1088 L3628.9088,256.8275 Z " fill="#000000"/><text fill="#000000" font-family="Arial" font-size="14" lengthAdjust="spacing" textLength="122.124" x="3639.94" y="256.0336">TelaHospedagem</text><line style="stroke:#181818;stroke-width:0.5;" x1="3611.94" x2="3764.064" y1="267.1869" y2="267.1869"/><line style="stroke:#181818;stroke-width:0.5;" x1="3611.94" x2="3764.064" y1="275.1869" y2="275.1869"/></g><!--class TelaViajante--><g id="elem_TelaViajante"><rect codeLine="100" fill="#F1F1F1" height="48" id="TelaViajante" rx="2.5" ry="2.5" style="stroke:#181818;stroke-width:0.5;" width="119.124" x="3800.44" y="235.1869"/><ellipse cx="3815.44" cy="251.1869" fill="#ADD1B2" rx="11" ry="11" style="stroke:#181818;stroke-width:1;"/><path d="M3818.4088,256.8275 Q3817.8306,257.1244 3817.19,257.265 Q3816.5494,257.4213 3815.8463,257.4213 Q3813.3463,257.4213 3812.0181,255.7806 Q3810.7056,254.1244 3810.7056,250.9994 Q3810.7056,247.8744 3812.0181,246.2181 Q3813.3463,244.5619 3815.8463,244.5619 Q3816.5494,244.5619 3817.19,244.7181 Q3817.8463,244.8744 3818.4088,245.1713 L3818.4088,247.89 Q3817.7838,247.3119 3817.19,247.0463 Q3816.5963,246.765 3815.9713,246.765 Q3814.6275,246.765 3813.94,247.8431 Q3813.2525,248.9056 3813.2525,250.9994 Q3813.2525,253.0931 3813.94,254.1713 Q3814.6275,255.2338 3815.9713,255.2338 Q3816.5963,255.2338 3817.19,254.9681 Q3817.7838,254.6869 3818.4088,254.1088 L3818.4088,256.8275 Z " fill="#000000"/><text fill="#000000" font-family="Arial" font-size="14" lengthAdjust="spacing" textLength="87.124" x="3829.44" y="256.0336">TelaViajante</text><line style="stroke:#181818;stroke-width:0.5;" x1="3801.44" x2="3918.564" y1="267.1869" y2="267.1869"/><line style="stroke:#181818;stroke-width:0.5;" x1="3801.44" x2="3918.564" y1="275.1869" y2="275.1869"/></g><!--class TelaConta--><g id="elem_TelaConta"><rect codeLine="101" fill="#F1F1F1" height="48" id="TelaConta" rx="2.5" ry="2.5" style="stroke:#181818;stroke-width:0.5;" width="102.916" x="2662.54" y="235.1869"/><ellipse cx="2677.54" cy="251.1869" fill="#ADD1B2" rx="11" ry="11" style="stroke:#181818;stroke-width:1;"/><path d="M2680.5088,256.8275 Q2679.9306,257.1244 2679.29,257.265 Q2678.6494,257.4213 2677.9463,257.4213 Q2675.4463,257.4213 2674.1181,255.7806 Q2672.8056,254.1244 2672.8056,250.9994 Q2672.8056,247.8744 2674.1181,246.2181 Q2675.4463,244.5619 2677.9463,244.5619 Q2678.6494,244.5619 2679.29,244.7181 Q2679.9463,244.8744 2680.5088,245.1713 L2680.5088,247.89 Q2679.8838,247.3119 2679.29,247.0463 Q2678.6963,246.765 2678.0713,246.765 Q2676.7275,246.765 2676.04,247.8431 Q2675.3525,248.9056 2675.3525,250.9994 Q2675.3525,253.0931 2676.04,254.1713 Q2676.7275,255.2338 2678.0713,255.2338 Q2678.6963,255.2338 2679.29,254.9681 Q2679.8838,254.6869 2680.5088,254.1088 L2680.5088,256.8275 Z " fill="#000000"/><text fill="#000000" font-family="Arial" font-size="14" lengthAdjust="spacing" textLength="70.916" x="2691.54" y="256.0336">TelaConta</text><line style="stroke:#181818;stroke-width:0.5;" x1="2663.54" x2="2764.456" y1="267.1869" y2="267.1869"/><line style="stroke:#181818;stroke-width:0.5;" x1="2663.54" x2="2764.456" y1="275.1869" y2="275.1869"/></g><!--reverse link IRepositorio to RepositorioBase--><g id="link_IRepositorio_RepositorioBase"><path codeLine="105" d="M1810.26,301.5369 C1810.26,332.7369 1810.26,368.5169 1810.26,399.7669 " fill="#FFFFFF" fill-opacity="0.00000" id="IRepositorio-backto-RepositorioBase" style="stroke:#181818;stroke-width:1;stroke-dasharray:7.0,7.0;"/><polygon fill="#FFFFFF" fill-opacity="0.00000" points="1810.26,283.5369,1804.26,301.5369,1816.26,301.5369,1810.26,283.5369" style="stroke:#181818;stroke-width:1;"/></g><!--reverse link IRepositorioViagem to RepositorioViagem--><g id="link_IRepositorioViagem_RepositorioViagem"><path codeLine="106" d="M1939.27,301.6569 C1939.27,357.6969 1939.27,472.5269 1939.27,472.5269 C1939.27,472.5269 1774.77,472.5269 1774.77,472.5269 C1774.77,472.5269 1774.77,549.0669 1774.77,589.4369 " fill="#FFFFFF" fill-opacity="0.00000" id="IRepositorioViagem-backto-RepositorioViagem" style="stroke:#181818;stroke-width:1;stroke-dasharray:7.0,7.0;"/><polygon fill="#FFFFFF" fill-opacity="0.00000" points="1939.27,283.6569,1933.27,301.6569,1945.27,301.6569,1939.27,283.6569" style="stroke:#181818;stroke-width:1;"/></g><!--reverse link RepositorioBase to RepositorioAutenticacao--><g id="link_RepositorioBase_RepositorioAutenticacao"><path codeLine="107" d="M1728.89,432.5269 C1625.53,432.5269 1467.14,432.5269 1467.14,432.5269 C1467.14,432.5269 1467.14,539.8169 1467.14,589.2669 " fill="#FFFFFF" fill-opacity="0.00000" id="RepositorioBase-backto-RepositorioAutenticacao" style="stroke:#181818;stroke-width:1;"/><polygon fill="#FFFFFF" fill-opacity="0.00000" points="1746.89,432.5269,1728.89,426.5269,1728.89,438.5269,1746.89,432.5269" style="stroke:#181818;stroke-width:1;"/></g><!--reverse link RepositorioBase to RepositorioViagem--><g id="link_RepositorioBase_RepositorioViagem"><path codeLine="108" d="M1761.05,466.6069 C1761.05,502.9869 1761.05,553.0869 1761.05,589.4169 " fill="#FFFFFF" fill-opacity="0.00000" id="RepositorioBase-backto-RepositorioViagem" style="stroke:#181818;stroke-width:1;"/><polygon fill="#FFFFFF" fill-opacity="0.00000" points="1761.05,448.6069,1755.05,466.6069,1767.05,466.6069,1761.05,448.6069" style="stroke:#181818;stroke-width:1;"/></g><!--reverse link RepositorioBase to RepositorioDestino--><g id="link_RepositorioBase_RepositorioDestino"><path codeLine="109" d="M1865.15,466.6069 C1865.15,502.9869 1865.15,553.0869 1865.15,589.4169 " fill="#FFFFFF" fill-opacity="0.00000" id="RepositorioBase-backto-RepositorioDestino" style="stroke:#181818;stroke-width:1;"/><polygon fill="#FFFFFF" fill-opacity="0.00000" points="1865.15,448.6069,1859.15,466.6069,1871.15,466.6069,1865.15,448.6069" style="stroke:#181818;stroke-width:1;"/></g><!--reverse link RepositorioBase to RepositorioAtividade--><g id="link_RepositorioBase_RepositorioAtividade"><path codeLine="110" d="M1910.98,436.5269 C1980.56,436.5269 2056.8,436.5269 2056.8,436.5269 C2056.8,436.5269 2056.8,540.9169 2056.8,589.4469 " fill="#FFFFFF" fill-opacity="0.00000" id="RepositorioBase-backto-RepositorioAtividade" style="stroke:#181818;stroke-width:1;"/><polygon fill="#FFFFFF" fill-opacity="0.00000" points="1892.98,436.5269,1910.98,442.5269,1910.98,430.5269,1892.98,436.5269" style="stroke:#181818;stroke-width:1;"/></g><!--reverse link RepositorioBase to RepositorioHospedagem--><g id="link_RepositorioBase_RepositorioHospedagem"><path codeLine="111" d="M1910.95,424.5269 C2049.29,424.5269 2318.04,424.5269 2318.04,424.5269 C2318.04,424.5269 2318.04,538.2669 2318.04,589.3669 " fill="#FFFFFF" fill-opacity="0.00000" id="RepositorioBase-backto-RepositorioHospedagem" style="stroke:#181818;stroke-width:1;"/><polygon fill="#FFFFFF" fill-opacity="0.00000" points="1892.95,424.5269,1910.95,430.5269,1910.95,418.5269,1892.95,424.5269" style="stroke:#181818;stroke-width:1;"/></g><!--reverse link RepositorioBase to RepositorioViajante--><g id="link_RepositorioBase_RepositorioViajante"><path codeLine="112" d="M1910.88,412.5269 C2099.86,412.5269 2573,412.5269 2573,412.5269 C2573,412.5269 2573,535.9369 2573,589.4369 " fill="#FFFFFF" fill-opacity="0.00000" id="RepositorioBase-backto-RepositorioViajante" style="stroke:#181818;stroke-width:1;"/><polygon fill="#FFFFFF" fill-opacity="0.00000" points="1892.88,412.5269,1910.88,418.5269,1910.88,406.5269,1892.88,412.5269" style="stroke:#181818;stroke-width:1;"/></g><!--reverse link RepositorioBase to RepositorioConta--><g id="link_RepositorioBase_RepositorioConta"><path codeLine="113" d="M1728.84,416.5269 C1577.61,416.5269 1262.58,416.5269 1262.58,416.5269 C1262.58,416.5269 1262.58,536.8769 1262.58,589.5269 " fill="#FFFFFF" fill-opacity="0.00000" id="RepositorioBase-backto-RepositorioConta" style="stroke:#181818;stroke-width:1;"/><polygon fill="#FFFFFF" fill-opacity="0.00000" points="1746.84,416.5269,1728.84,410.5269,1728.84,422.5269,1746.84,416.5269" style="stroke:#181818;stroke-width:1;"/></g><!--reverse link TelaBase to TelaAutenticacao--><g id="link_TelaBase_TelaAutenticacao"><path codeLine="115" d="M3289.9,123.5269 C3200.78,123.5269 3037,123.5269 3037,123.5269 C3037,123.5269 3037,195.9069 3037,234.9269 " fill="#FFFFFF" fill-opacity="0.00000" id="TelaBase-backto-TelaAutenticacao" style="stroke:#181818;stroke-width:1;"/><polygon fill="#FFFFFF" fill-opacity="0.00000" points="3307.9,123.5269,3289.9,117.5269,3289.9,129.5269,3307.9,123.5269" style="stroke:#181818;stroke-width:1;"/></g><!--reverse link TelaBase to TelaCadastro--><g id="link_TelaBase_TelaCadastro"><path codeLine="116" d="M3289.83,114.5269 C3165.78,114.5269 2863,114.5269 2863,114.5269 C2863,114.5269 2863,193.7869 2863,234.9669 " fill="#FFFFFF" fill-opacity="0.00000" id="TelaBase-backto-TelaCadastro" style="stroke:#181818;stroke-width:1;"/><polygon fill="#FFFFFF" fill-opacity="0.00000" points="3307.83,114.5269,3289.83,108.5269,3289.83,120.5269,3307.83,114.5269" style="stroke:#181818;stroke-width:1;"/></g><!--reverse link TelaBase to TelaPrincipal--><g id="link_TelaBase_TelaPrincipal"><path codeLine="117" d="M3422.19,104.5269 C3574.11,104.5269 4015,104.5269 4015,104.5269 C4015,104.5269 4015,191.5169 4015,235.0169 " fill="#FFFFFF" fill-opacity="0.00000" id="TelaBase-backto-TelaPrincipal" style="stroke:#181818;stroke-width:1;"/><polygon fill="#FFFFFF" fill-opacity="0.00000" points="3404.19,104.5269,3422.19,110.5269,3422.19,98.5269,3404.19,104.5269" style="stroke:#181818;stroke-width:1;"/></g><!--reverse link TelaBase to TelaViagem--><g id="link_TelaBase_TelaViagem"><path codeLine="118" d="M3289.71,133.5269 C3245.86,133.5269 3206,133.5269 3206,133.5269 C3206,133.5269 3206,198.4369 3206,234.9569 " fill="#FFFFFF" fill-opacity="0.00000" id="TelaBase-backto-TelaViagem" style="stroke:#181818;stroke-width:1;"/><polygon fill="#FFFFFF" fill-opacity="0.00000" points="3307.71,133.5269,3289.71,127.5269,3289.71,139.5269,3307.71,133.5269" style="stroke:#181818;stroke-width:1;"/></g><!--reverse link TelaBase to TelaDestino--><g id="link_TelaBase_TelaDestino"><path codeLine="119" d="M3356,161.0769 C3356,186.8869 3356,209.2769 3356,234.9769 " fill="#FFFFFF" fill-opacity="0.00000" id="TelaBase-backto-TelaDestino" style="stroke:#181818;stroke-width:1;"/><polygon fill="#FFFFFF" fill-opacity="0.00000" points="3356,143.0769,3350,161.0769,3362,161.0769,3356,143.0769" style="stroke:#181818;stroke-width:1;"/></g><!--reverse link TelaBase to TelaAtividade--><g id="link_TelaBase_TelaAtividade"><path codeLine="120" d="M3422.08,133.5269 C3467.91,133.5269 3512,133.5269 3512,133.5269 C3512,133.5269 3512,198.4369 3512,234.9569 " fill="#FFFFFF" fill-opacity="0.00000" id="TelaBase-backto-TelaAtividade" style="stroke:#181818;stroke-width:1;"/><polygon fill="#FFFFFF" fill-opacity="0.00000" points="3404.08,133.5269,3422.08,139.5269,3422.08,127.5269,3404.08,133.5269" style="stroke:#181818;stroke-width:1;"/></g><!--reverse link TelaBase to TelaHospedagem--><g id="link_TelaBase_TelaHospedagem"><path codeLine="121" d="M3422.28,123.5269 C3514.36,123.5269 3688,123.5269 3688,123.5269 C3688,123.5269 3688,195.9069 3688,234.9269 " fill="#FFFFFF" fill-opacity="0.00000" id="TelaBase-backto-TelaHospedagem" style="stroke:#181818;stroke-width:1;"/><polygon fill="#FFFFFF" fill-opacity="0.00000" points="3404.28,123.5269,3422.28,129.5269,3422.28,117.5269,3404.28,123.5269" style="stroke:#181818;stroke-width:1;"/></g><!--reverse link TelaBase to TelaViajante--><g id="link_TelaBase_TelaViajante"><path codeLine="122" d="M3422.33,114.5269 C3548.47,114.5269 3860,114.5269 3860,114.5269 C3860,114.5269 3860,193.7869 3860,234.9669 " fill="#FFFFFF" fill-opacity="0.00000" id="TelaBase-backto-TelaViajante" style="stroke:#181818;stroke-width:1;"/><polygon fill="#FFFFFF" fill-opacity="0.00000" points="3404.33,114.5269,3422.33,120.5269,3422.33,108.5269,3404.33,114.5269" style="stroke:#181818;stroke-width:1;"/></g><!--reverse link TelaBase to TelaConta--><g id="link_TelaBase_TelaConta"><path codeLine="123" d="M3289.75,104.5269 C3140.44,104.5269 2714,104.5269 2714,104.5269 C2714,104.5269 2714,191.5169 2714,235.0169 " fill="#FFFFFF" fill-opacity="0.00000" id="TelaBase-backto-TelaConta" style="stroke:#181818;stroke-width:1;"/><polygon fill="#FFFFFF" fill-opacity="0.00000" points="3307.75,104.5269,3289.75,98.5269,3289.75,110.5269,3307.75,104.5269" style="stroke:#181818;stroke-width:1;"/></g><!--link Viajante to Nome--><g id="link_Viajante_Nome"><path codeLine="126" d="M392.42,151.5269 C519.64,151.5269 810.43,151.5269 810.43,151.5269 C810.43,151.5269 810.43,830.0269 810.43,969.0669 " fill="#FFFFFF" fill-opacity="0.00000" id="Viajante-to-Nome" style="stroke:#181818;stroke-width:1;"/><polygon fill="#181818" points="810.43,975.0669,814.43,966.0669,810.43,970.0669,806.43,966.0669,810.43,975.0669" style="stroke:#181818;stroke-width:1;"/></g><!--link Viajante to Conta--><g id="link_Viajante_Conta"><path codeLine="127" d="M334,159.2569 C334,177.9069 334,193.9669 334,212.6069 " fill="#FFFFFF" fill-opacity="0.00000" id="Viajante-to-Conta" style="stroke:#181818;stroke-width:1;"/><polygon fill="#181818" points="334,218.6069,338,209.6069,334,213.6069,330,209.6069,334,218.6069" style="stroke:#181818;stroke-width:1;"/></g><!--link Viagem to Nome--><g id="link_Viagem_Nome"><path codeLine="128" d="M396.14,458.5269 C535.81,458.5269 798.21,458.5269 798.21,458.5269 C798.21,458.5269 798.21,863.9569 798.21,969.2269 " fill="#FFFFFF" fill-opacity="0.00000" id="Viagem-to-Nome" style="stroke:#181818;stroke-width:1;"/><polygon fill="#181818" points="798.21,975.2269,802.21,966.2269,798.21,970.2269,794.21,966.2269,798.21,975.2269" style="stroke:#181818;stroke-width:1;"/></g><!--link Viagem to Codigo--><g id="link_Viagem_Codigo"><path codeLine="129" d="M395.95,462.5269 C506.97,462.5269 687.43,462.5269 687.43,462.5269 C687.43,462.5269 687.43,864.0069 687.43,969.0569 " fill="#FFFFFF" fill-opacity="0.00000" id="Viagem-to-Codigo" style="stroke:#181818;stroke-width:1;"/><polygon fill="#181818" points="687.43,975.0569,691.43,966.0569,687.43,970.0569,683.43,966.0569,687.43,975.0569" style="stroke:#181818;stroke-width:1;"/></g><!--link Viagem to Avaliacao--><g id="link_Viagem_Avaliacao"><path codeLine="130" d="M396.13,465.5269 C474.57,465.5269 578.89,465.5269 578.89,465.5269 C578.89,465.5269 578.89,864.7269 578.89,969.1969 " fill="#FFFFFF" fill-opacity="0.00000" id="Viagem-to-Avaliacao" style="stroke:#181818;stroke-width:1;"/><polygon fill="#181818" points="578.89,975.1969,582.89,966.1969,578.89,970.1969,574.89,966.1969,578.89,975.1969" style="stroke:#181818;stroke-width:1;"/></g><!--link Viagem to Conta--><g id="link_Viagem_Conta"><path codeLine="131" d="M309.17,358.9969 C309.17,338.9969 309.17,323.5669 309.17,305.7169 " fill="#FFFFFF" fill-opacity="0.00000" id="Viagem-to-Conta" style="stroke:#181818;stroke-width:1;"/><polygon fill="#181818" points="309.17,299.7169,305.17,308.7169,309.17,304.7169,313.17,308.7169,309.17,299.7169" style="stroke:#181818;stroke-width:1;"/></g><!--link Conta to Viagem--><g id="link_Conta_Viagem"><path codeLine="152" d="M352.45,299.9769 C352.45,317.8269 352.45,339.2169 352.45,359.1669 " fill="#FFFFFF" fill-opacity="0.00000" id="Conta-Viagem" style="stroke:#181818;stroke-width:1;"/><text fill="#000000" font-family="Arial" font-size="13" lengthAdjust="spacing" textLength="8.271" x="347.1422" y="319.4488">1</text><text fill="#000000" font-family="Arial" font-size="13" lengthAdjust="spacing" textLength="23.0356" x="332.7282" y="348.3056">0..*</text></g><!--link Viagem to Dinheiro--><g id="link_Viagem_Dinheiro"><path codeLine="132" d="M396.04,469.5269 C421.02,469.5269 441.78,469.5269 441.78,469.5269 C441.78,469.5269 441.78,865.6969 441.78,969.3769 " fill="#FFFFFF" fill-opacity="0.00000" id="Viagem-to-Dinheiro" style="stroke:#181818;stroke-width:1;"/><polygon fill="#181818" points="441.78,975.3769,445.78,966.3769,441.78,970.3769,437.78,966.3769,441.78,975.3769" style="stroke:#181818;stroke-width:1;"/></g><!--link Destino to Nome--><g id="link_Destino_Nome"><path codeLine="133" d="M396.19,646.5269 C532.89,646.5269 786,646.5269 786,646.5269 C786,646.5269 786,889.5069 786,969.2669 " fill="#FFFFFF" fill-opacity="0.00000" id="Destino-to-Nome" style="stroke:#181818;stroke-width:1;"/><polygon fill="#181818" points="786,975.2669,790,966.2669,786,970.2669,782,966.2669,786,975.2669" style="stroke:#181818;stroke-width:1;"/></g><!--link Destino to Codigo--><g id="link_Destino_Codigo"><path codeLine="134" d="M396.11,654.5269 C503.4,654.5269 674,654.5269 674,654.5269 C674,654.5269 674,890.7369 674,969.2669 " fill="#FFFFFF" fill-opacity="0.00000" id="Destino-to-Codigo" style="stroke:#181818;stroke-width:1;"/><polygon fill="#181818" points="674,975.2669,678,966.2669,674,970.2669,670,966.2669,674,975.2669" style="stroke:#181818;stroke-width:1;"/></g><!--link Destino to Avaliacao--><g id="link_Destino_Avaliacao"><path codeLine="135" d="M395.99,662.5269 C467.77,662.5269 558.96,662.5269 558.96,662.5269 C558.96,662.5269 558.96,892.0169 558.96,969.2869 " fill="#FFFFFF" fill-opacity="0.00000" id="Destino-to-Avaliacao" style="stroke:#181818;stroke-width:1;"/><polygon fill="#181818" points="558.96,975.2869,562.96,966.2869,558.96,970.2869,554.96,966.2869,558.96,975.2869" style="stroke:#181818;stroke-width:1;"/></g><!--link Destino to Data--><g id="link_Destino_Data"><path codeLine="136" d="M396.06,670.5269 C409.44,670.5269 418.95,670.5269 418.95,670.5269 C418.95,670.5269 418.95,890.5269 418.95,890.5269 C418.95,890.5269 316.9,890.5269 316.9,890.5269 C316.9,890.5269 316.9,936.9269 316.9,969.0669 " fill="#FFFFFF" fill-opacity="0.00000" id="Destino-to-Data" style="stroke:#181818;stroke-width:1;"/><polygon fill="#181818" points="316.9,975.0669,320.9,966.0669,316.9,970.0669,312.9,966.0669,316.9,975.0669" style="stroke:#181818;stroke-width:1;"/></g><!--link Atividade to Nome--><g id="link_Atividade_Nome"><path codeLine="137" d="M191.9,880.5269 C369.01,880.5269 761.57,880.5269 761.57,880.5269 C761.57,880.5269 761.57,934.3469 761.57,969.1569 " fill="#FFFFFF" fill-opacity="0.00000" id="Atividade-to-Nome" style="stroke:#181818;stroke-width:1;"/><polygon fill="#181818" points="761.57,975.1569,765.57,966.1569,761.57,970.1569,757.57,966.1569,761.57,975.1569" style="stroke:#181818;stroke-width:1;"/></g><!--link Atividade to Codigo--><g id="link_Atividade_Codigo"><path codeLine="138" d="M191.99,883.5269 C344.1,883.5269 647.14,883.5269 647.14,883.5269 C647.14,883.5269 647.14,935.1969 647.14,969.2069 " fill="#FFFFFF" fill-opacity="0.00000" id="Atividade-to-Codigo" style="stroke:#181818;stroke-width:1;"/><polygon fill="#181818" points="647.14,975.2069,651.14,966.2069,647.14,970.2069,643.14,966.2069,647.14,975.2069" style="stroke:#181818;stroke-width:1;"/></g><!--link Atividade to Avaliacao--><g id="link_Atividade_Avaliacao"><path codeLine="139" d="M191.89,887.5269 C312.53,887.5269 519.11,887.5269 519.11,887.5269 C519.11,887.5269 519.11,936.2869 519.11,969.2269 " fill="#FFFFFF" fill-opacity="0.00000" id="Atividade-to-Avaliacao" style="stroke:#181818;stroke-width:1;"/><polygon fill="#181818" points="519.11,975.2269,523.11,966.2269,519.11,970.2269,515.11,966.2269,519.11,975.2269" style="stroke:#181818;stroke-width:1;"/></g><!--link Atividade to Data--><g id="link_Atividade_Data"><path codeLine="140" d="M191.97,897.5269 C241.81,897.5269 295.1,897.5269 295.1,897.5269 C295.1,897.5269 295.1,938.9169 295.1,969.0969 " fill="#FFFFFF" fill-opacity="0.00000" id="Atividade-to-Data" style="stroke:#181818;stroke-width:1;"/><polygon fill="#181818" points="295.1,975.0969,299.1,966.0969,295.1,970.0969,291.1,966.0969,295.1,975.0969" style="stroke:#181818;stroke-width:1;"/></g><!--link Atividade to Horario--><g id="link_Atividade_Horario"><path codeLine="141" d="M172.95,900.8169 C172.95,927.8369 172.95,949.9169 172.95,969.1869 " fill="#FFFFFF" fill-opacity="0.00000" id="Atividade-to-Horario" style="stroke:#181818;stroke-width:1;"/><polygon fill="#181818" points="172.95,975.1869,176.95,966.1869,172.95,970.1869,168.95,966.1869,172.95,975.1869" style="stroke:#181818;stroke-width:1;"/></g><!--link Atividade to Duracao--><g id="link_Atividade_Duracao"><path codeLine="142" d="M74,900.8169 C74,927.8369 74,949.9169 74,969.1869 " fill="#FFFFFF" fill-opacity="0.00000" id="Atividade-to-Duracao" style="stroke:#181818;stroke-width:1;"/><polygon fill="#181818" points="74,975.1869,78,966.1869,74,970.1869,70,966.1869,74,975.1869" style="stroke:#181818;stroke-width:1;"/></g><!--link Atividade to Dinheiro--><g id="link_Atividade_Dinheiro"><path codeLine="143" d="M192.14,894.5269 C272.52,894.5269 380.83,894.5269 380.83,894.5269 C380.83,894.5269 380.83,938.1569 380.83,969.1769 " fill="#FFFFFF" fill-opacity="0.00000" id="Atividade-to-Dinheiro" style="stroke:#181818;stroke-width:1;"/><polygon fill="#181818" points="380.83,975.1769,384.83,966.1769,380.83,970.1769,376.83,966.1769,380.83,975.1769" style="stroke:#181818;stroke-width:1;"/></g><!--link Hospedagem to Nome--><g id="link_Hospedagem_Nome"><path codeLine="144" d="M396.15,791.5269 C529.81,791.5269 773.79,791.5269 773.79,791.5269 C773.79,791.5269 773.79,914.3869 773.79,969.2569 " fill="#FFFFFF" fill-opacity="0.00000" id="Hospedagem-to-Nome" style="stroke:#181818;stroke-width:1;"/><polygon fill="#181818" points="773.79,975.2569,777.79,966.2569,773.79,970.2569,769.79,966.2569,773.79,975.2569" style="stroke:#181818;stroke-width:1;"/></g><!--link Hospedagem to Codigo--><g id="link_Hospedagem_Codigo"><path codeLine="145" d="M396.07,819.5269 C499.54,819.5269 660.57,819.5269 660.57,819.5269 C660.57,819.5269 660.57,920.1169 660.57,969.2469 " fill="#FFFFFF" fill-opacity="0.00000" id="Hospedagem-to-Codigo" style="stroke:#181818;stroke-width:1;"/><polygon fill="#181818" points="660.57,975.2469,664.57,966.2469,660.57,970.2469,656.57,966.2469,660.57,975.2469" style="stroke:#181818;stroke-width:1;"/></g><!--link Hospedagem to Avaliacao--><g id="link_Hospedagem_Avaliacao"><path codeLine="146" d="M395.91,848.5269 C460.75,848.5269 539.04,848.5269 539.04,848.5269 C539.04,848.5269 539.04,926.5869 539.04,969.2669 " fill="#FFFFFF" fill-opacity="0.00000" id="Hospedagem-to-Avaliacao" style="stroke:#181818;stroke-width:1;"/><polygon fill="#181818" points="539.04,975.2669,543.04,966.2669,539.04,970.2669,535.04,966.2669,539.04,975.2669" style="stroke:#181818;stroke-width:1;"/></g><!--link Hospedagem to Dinheiro--><g id="link_Hospedagem_Dinheiro"><path codeLine="147" d="M388.28,876.4569 C388.28,909.8269 388.28,944.2469 388.28,969.4369 " fill="#FFFFFF" fill-opacity="0.00000" id="Hospedagem-to-Dinheiro" style="stroke:#181818;stroke-width:1;"/><polygon fill="#181818" points="388.28,975.4369,392.28,966.4369,388.28,970.4369,384.28,966.4369,388.28,975.4369" style="stroke:#181818;stroke-width:1;"/></g><!--link Conta to Codigo--><g id="link_Conta_Codigo"><path codeLine="148" d="M396.27,294.5269 C502.45,294.5269 700.86,294.5269 700.86,294.5269 C700.86,294.5269 700.86,845.2969 700.86,969.2569 " fill="#FFFFFF" fill-opacity="0.00000" id="Conta-to-Codigo" style="stroke:#181818;stroke-width:1;"/><polygon fill="#181818" points="700.86,975.2569,704.86,966.2569,700.86,970.2569,696.86,966.2569,700.86,975.2569" style="stroke:#181818;stroke-width:1;"/></g><!--link Conta to Senha--><g id="link_Conta_Senha"><path codeLine="149" d="M396.36,289.5269 C545.09,289.5269 896,289.5269 896,289.5269 C896,289.5269 896,844.2369 896,969.0869 " fill="#FFFFFF" fill-opacity="0.00000" id="Conta-to-Senha" style="stroke:#181818;stroke-width:1;"/><polygon fill="#181818" points="896,975.0869,900,966.0869,896,970.0869,892,966.0869,896,975.0869" style="stroke:#181818;stroke-width:1;"/></g><!--link Viagem to Destino--><g id="link_Viagem_Destino"><path codeLine="153" d="M311,489.4369 C311,508.5969 311,529.5469 311,548.6969 " fill="#FFFFFF" fill-opacity="0.00000" id="Viagem-Destino" style="stroke:#181818;stroke-width:1;"/><text fill="#000000" font-family="Arial" font-size="13" lengthAdjust="spacing" textLength="8.271" x="302.6019" y="509.0096">1</text><text fill="#000000" font-family="Arial" font-size="13" lengthAdjust="spacing" textLength="23.0356" x="286.7446" y="537.84">0..*</text></g><!--link Destino to Atividade--><g id="link_Destino_Atividade"><path codeLine="154" d="M282.76,678.5769 C282.76,714.3269 282.76,751.5269 282.76,751.5269 C282.76,751.5269 236.91,751.5269 192.05,751.5269 " fill="#FFFFFF" fill-opacity="0.00000" id="Destino-Atividade" style="stroke:#181818;stroke-width:1;"/><text fill="#000000" font-family="Arial" font-size="13" lengthAdjust="spacing" textLength="8.271" x="271.249" y="698.5663">1</text><text fill="#000000" font-family="Arial" font-size="13" lengthAdjust="spacing" textLength="23.0356" x="199.7456" y="742.5859">0..*</text></g><!--link Destino to Hospedagem--><g id="link_Destino_Hospedagem"><path codeLine="155" d="M339.24,678.8169 C339.24,705.6669 339.24,736.4969 339.24,762.4369 " fill="#FFFFFF" fill-opacity="0.00000" id="Destino-Hospedagem" style="stroke:#181818;stroke-width:1;"/><text fill="#000000" font-family="Arial" font-size="13" lengthAdjust="spacing" textLength="8.271" x="333.7541" y="698.3783">1</text><text fill="#000000" font-family="Arial" font-size="13" lengthAdjust="spacing" textLength="23.0356" x="318.2828" y="751.6444">0..*</text></g><!--link ServicoAutenticacao to RepositorioAutenticacao--><g id="link_ServicoAutenticacao_RepositorioAutenticacao"><path codeLine="158" d="M2960,448.5769 C2960,452.6169 2960,455.5269 2960,455.5269 C2960,455.5269 1534.86,455.5269 1534.86,455.5269 C1534.86,455.5269 1534.86,538.9669 1534.86,583.3369 " fill="#FFFFFF" fill-opacity="0.00000" id="ServicoAutenticacao-to-RepositorioAutenticacao" style="stroke:#181818;stroke-width:1;"/><polygon fill="#181818" points="1534.86,589.3369,1538.86,580.3369,1534.86,584.3369,1530.86,580.3369,1534.86,589.3369" style="stroke:#181818;stroke-width:1;"/></g><!--link ServicoViagem to RepositorioViagem--><g id="link_ServicoViagem_RepositorioViagem"><path codeLine="159" d="M3151,448.6769 C3151,461.8869 3151,475.5269 3151,475.5269 C3151,475.5269 1788.49,475.5269 1788.49,475.5269 C1788.49,475.5269 1788.49,543.6569 1788.49,583.3169 " fill="#FFFFFF" fill-opacity="0.00000" id="ServicoViagem-to-RepositorioViagem" style="stroke:#181818;stroke-width:1;"/><polygon fill="#181818" points="1788.49,589.3169,1792.49,580.3169,1788.49,584.3169,1784.49,580.3169,1788.49,589.3169" style="stroke:#181818;stroke-width:1;"/></g><!--link ServicoDestino to RepositorioDestino--><g id="link_ServicoDestino_RepositorioDestino"><path codeLine="160" d="M3323,448.6369 C3323,463.4569 3323,479.5269 3323,479.5269 C3323,479.5269 1970.82,479.5269 1970.82,479.5269 C1970.82,479.5269 1970.82,544.7369 1970.82,583.4069 " fill="#FFFFFF" fill-opacity="0.00000" id="ServicoDestino-to-RepositorioDestino" style="stroke:#181818;stroke-width:1;"/><polygon fill="#181818" points="1970.82,589.4069,1974.82,580.4069,1970.82,584.4069,1966.82,580.4069,1970.82,589.4069" style="stroke:#181818;stroke-width:1;"/></g><!--link ServicoAtividade to RepositorioAtividade--><g id="link_ServicoAtividade_RepositorioAtividade"><path codeLine="161" d="M3501,448.6069 C3501,464.5869 3501,482.5269 3501,482.5269 C3501,482.5269 2145.47,482.5269 2145.47,482.5269 C2145.47,482.5269 2145.47,545.4069 2145.47,583.3369 " fill="#FFFFFF" fill-opacity="0.00000" id="ServicoAtividade-to-RepositorioAtividade" style="stroke:#181818;stroke-width:1;"/><polygon fill="#181818" points="2145.47,589.3369,2149.47,580.3369,2145.47,584.3369,2141.47,580.3369,2145.47,589.3369" style="stroke:#181818;stroke-width:1;"/></g><!--link ServicoHospedagem to RepositorioHospedagem--><g id="link_ServicoHospedagem_RepositorioHospedagem"><path codeLine="162" d="M3699,448.4869 C3699,465.9869 3699,486.5269 3699,486.5269 C3699,486.5269 2385.96,486.5269 2385.96,486.5269 C2385.96,486.5269 2385.96,546.5869 2385.96,583.4869 " fill="#FFFFFF" fill-opacity="0.00000" id="ServicoHospedagem-to-RepositorioHospedagem" style="stroke:#181818;stroke-width:1;"/><polygon fill="#181818" points="2385.96,589.4869,2389.96,580.4869,2385.96,584.4869,2381.96,580.4869,2385.96,589.4869" style="stroke:#181818;stroke-width:1;"/></g><!--link ServicoViajante to RepositorioViajante--><g id="link_ServicoViajante_RepositorioViajante"><path codeLine="163" d="M3893,448.7069 C3893,500.1069 3893,614.5269 3893,614.5269 C3893,614.5269 2955.46,614.5269 2663.83,614.5269 " fill="#FFFFFF" fill-opacity="0.00000" id="ServicoViajante-to-RepositorioViajante" style="stroke:#181818;stroke-width:1;"/><polygon fill="#181818" points="2657.83,614.5269,2666.83,618.5269,2662.83,614.5269,2666.83,610.5269,2657.83,614.5269" style="stroke:#181818;stroke-width:1;"/></g><!--link ServicoConta to RepositorioConta--><g id="link_ServicoConta_RepositorioConta"><path codeLine="164" d="M2775,448.5869 C2775,450.9769 2775,452.5269 2775,452.5269 C2775,452.5269 1313.42,452.5269 1313.42,452.5269 C1313.42,452.5269 1313.42,538.1369 1313.42,583.2269 " fill="#FFFFFF" fill-opacity="0.00000" id="ServicoConta-to-RepositorioConta" style="stroke:#181818;stroke-width:1;"/><polygon fill="#181818" points="1313.42,589.2269,1317.42,580.2269,1313.42,584.2269,1309.42,580.2269,1313.42,589.2269" style="stroke:#181818;stroke-width:1;"/></g><!--link TelaAutenticacao to ServicoAutenticacao--><g id="link_TelaAutenticacao_ServicoAutenticacao"><path codeLine="167" d="M3004.01,283.5369 C3004.01,314.7369 3004.01,362.5169 3004.01,393.7669 " fill="#FFFFFF" fill-opacity="0.00000" id="TelaAutenticacao-to-ServicoAutenticacao" style="stroke:#181818;stroke-width:1;"/><polygon fill="#181818" points="3004.01,399.7669,3008.01,390.7669,3004.01,394.7669,3000.01,390.7669,3004.01,399.7669" style="stroke:#181818;stroke-width:1;"/></g><!--link TelaCadastro to ServicoAutenticacao--><g id="link_TelaCadastro_ServicoAutenticacao"><path codeLine="168" d="M2898.74,283.5369 C2898.74,314.7369 2898.74,362.5169 2898.74,393.7669 " fill="#FFFFFF" fill-opacity="0.00000" id="TelaCadastro-to-ServicoAutenticacao" style="stroke:#181818;stroke-width:1;"/><polygon fill="#181818" points="2898.74,399.7669,2902.74,390.7669,2898.74,394.7669,2894.74,390.7669,2898.74,399.7669" style="stroke:#181818;stroke-width:1;"/></g><!--link TelaViagem to ServicoViagem--><g id="link_TelaViagem_ServicoViagem"><path codeLine="169" d="M3184.01,283.5369 C3184.01,314.7369 3184.01,362.5169 3184.01,393.7669 " fill="#FFFFFF" fill-opacity="0.00000" id="TelaViagem-to-ServicoViagem" style="stroke:#181818;stroke-width:1;"/><polygon fill="#181818" points="3184.01,399.7669,3188.01,390.7669,3184.01,394.7669,3180.01,390.7669,3184.01,399.7669" style="stroke:#181818;stroke-width:1;"/></g><!--link TelaDestino to ServicoDestino--><g id="link_TelaDestino_ServicoDestino"><path codeLine="170" d="M3345.01,283.5369 C3345.01,314.7369 3345.01,362.5169 3345.01,393.7669 " fill="#FFFFFF" fill-opacity="0.00000" id="TelaDestino-to-ServicoDestino" style="stroke:#181818;stroke-width:1;"/><polygon fill="#181818" points="3345.01,399.7669,3349.01,390.7669,3345.01,394.7669,3341.01,390.7669,3345.01,399.7669" style="stroke:#181818;stroke-width:1;"/></g><!--link TelaAtividade to ServicoAtividade--><g id="link_TelaAtividade_ServicoAtividade"><path codeLine="171" d="M3512,283.5369 C3512,314.7369 3512,362.5169 3512,393.7669 " fill="#FFFFFF" fill-opacity="0.00000" id="TelaAtividade-to-ServicoAtividade" style="stroke:#181818;stroke-width:1;"/><polygon fill="#181818" points="3512,399.7669,3516,390.7669,3512,394.7669,3508,390.7669,3512,399.7669" style="stroke:#181818;stroke-width:1;"/></g><!--link TelaHospedagem to ServicoHospedagem--><g id="link_TelaHospedagem_ServicoHospedagem"><path codeLine="172" d="M3688,283.5369 C3688,314.7369 3688,362.5169 3688,393.7669 " fill="#FFFFFF" fill-opacity="0.00000" id="TelaHospedagem-to-ServicoHospedagem" style="stroke:#181818;stroke-width:1;"/><polygon fill="#181818" points="3688,399.7669,3692,390.7669,3688,394.7669,3684,390.7669,3688,399.7669" style="stroke:#181818;stroke-width:1;"/></g><!--link TelaViajante to ServicoViajante--><g id="link_TelaViajante_ServicoViajante"><path codeLine="173" d="M3870.99,283.5369 C3870.99,314.7369 3870.99,362.5169 3870.99,393.7669 " fill="#FFFFFF" fill-opacity="0.00000" id="TelaViajante-to-ServicoViajante" style="stroke:#181818;stroke-width:1;"/><polygon fill="#181818" points="3870.99,399.7669,3874.99,390.7669,3870.99,394.7669,3866.99,390.7669,3870.99,399.7669" style="stroke:#181818;stroke-width:1;"/></g><!--link TelaConta to ServicoConta--><g id="link_TelaConta_ServicoConta"><path codeLine="174" d="M2738.99,283.5369 C2738.99,314.7369 2738.99,362.5169 2738.99,393.7669 " fill="#FFFFFF" fill-opacity="0.00000" id="TelaConta-to-ServicoConta" style="stroke:#181818;stroke-width:1;"/><polygon fill="#181818" points="2738.99,399.7669,2742.99,390.7669,2738.99,394.7669,2734.99,390.7669,2738.99,399.7669" style="stroke:#181818;stroke-width:1;"/></g><!--SRC=[jLRDRXCn4BxlKrYv826I0iUeGWefLIDGLP6M-x3h9cvtxSLsYYBeyt3Yn2FqnV2klTwnlPlqqfwQxviTptoU7wjxnckGK97laDzlfDZnOYbA8SdFBTCqKvxFHLKBJhbUwtr9oQugtoEseBUmA_MvuFeIAaeMaa69-99nglSr9KBghSWopRHnicPAqmhCr-Ig14xlpATSY-RtDmORoXMP6bS_TYOKlPD0bYQ8ach8ibVaJ5J0EFa2UogpsaHlFY0JWpxzvKoe2VcL4VENbw0KMJn0oI07WR2bADW60sTWFAEVZ6yfau652I9qSY4aI8QHIr5Hz7DD-HQonoRYJzoalRSH4zB7tE0553IAsKXm1rnJ1pP_KyADztb_XWLp8plCJKBS9V0OkjdGwZbE6ZdcM1PBGAVTF99nv707xvGMrq93EG-LnB6TKQKP5oyNN66kTCLPpWplhxUdpbc5S1pPGhE7zb9UDhOaggsjftbGMCxU5jyyg49BrPBcue3E5qBLj7ZPEYYOYHSE1D5MI73-w56gQPgvwnthf-sWbMa7UGivZTlU4xw7c3TTVQMrK4mB8-VfzPlF7mxmjbdiOHxUnwSvvkcVJ0ODylKH51rc5ZjjvXpBercInZ78kQOPSTtLxJ3T5yBekUtC6MPjZxVYhAbyOEazjF3JdrWLQpsMjsEJd1sUvjkvyprAKd8mq_waE4l7e0nlLd5orzIOXearK7JF3JIIQ4CjeG2bPGnVISPpLfkb6UA9A0sOAj8UEd3r3JweXFCToz16s6kmCgqicGQUqmot2JdzFPibjPusKcBdqec-D6RJwMY373DsHnsrwrGxUhZNyPWbKlOPGLgjZnbQzREki2oVr5HA-xfAgRwsKivTI4fqQWq4ulL9EQJ8u5bMWu7eRTRcLKThoWjgugNDuwzzCfb_C_yOcau_s8qL8FPxLmdOfFljLWn2-XqMc4L-_3RhdYhUEGQSTmprxZ7QRlj-Rdbd8UJSXM3lCCG7N7PlXyZGFHiYj4iGlH5yM17cuehGFh28yAxjvaSUUi2k-7RRbg2Pu6hBwk3chUtatSJOaydRsUprnBrfktiAkQvmEzb3jY_UOHuLS5gDRkcfaxvVJO03owrDRMoU1UikjdIPXQilDkfIJFPWVAnFDbcAiIdAErgI0n7QBiOhCpOQw-URrKadOXOFDLSFwKi1ZxU3HaZIy4s11XfcyOmBHOoLpSBXXcsYaHV85hyt_AZ3R0ly1m00]--></g></svg>